<svg xmlns="http://www.w3.org/2000/svg" xmlns:xlink="http://www.w3.org/1999/xlink" xmlns:lucid="lucid" width="1725.9" height="812"><g transform="translate(0 -47.99999999994924)" lucid:page-tab-id="0_0"><path d="M0 0h1760v1360H0z" fill="#fff"/><path d="M453.15 76c0-4.42 3.58-8 8-8h836.75c4.4 0 8 3.58 8 8v25.16c0 4.4-3.6 8-8 8H461.15c-4.42 0-8-3.6-8-8z" stroke="#000" stroke-opacity="0" stroke-width="2" fill="#fff" fill-opacity="0"/><use xlink:href="#a" transform="matrix(1,0,0,1,457.1465527853429,71.99999999994924) translate(286.2495061728395 25.782777777777778)"/><use xlink:href="#b" transform="matrix(1,0,0,1,457.1465527853429,71.99999999994924) translate(356.1025925925926 25.782777777777778)"/><use xlink:href="#c" transform="matrix(1,0,0,1,457.1465527853429,71.99999999994924) translate(459.24333333333334 25.782777777777778)"/><use xlink:href="#d" transform="matrix(1,0,0,1,457.1465527853429,71.99999999994924) translate(510.15814814814814 25.782777777777778)"/><path d="M628.64 107.8h505.86M628.66 107.8h-1.02M1134.47 107.8h1.03" stroke="#a9afb8" stroke-width="2" fill="none"/><path d="M453.15 117.16c0-4.42 3.58-8 8-8h837.7c4.42 0 8 3.58 8 8V120c0 4.42-3.58 8-8 8h-837.7c-4.42 0-8-3.58-8-8z" stroke="#000" stroke-opacity="0" stroke-width="2" fill="#fff" fill-opacity="0"/><use xlink:href="#e" transform="matrix(1,0,0,1,457.1465527853434,113.15522395684805) translate(303.34477366255146 14.917037037037037)"/><use xlink:href="#f" transform="matrix(1,0,0,1,457.1465527853434,113.15522395684805) translate(361.08829218106996 14.917037037037037)"/><use xlink:href="#g" transform="matrix(1,0,0,1,457.1465527853434,113.15522395684805) translate(411.1836625514403 14.917037037037037)"/><use xlink:href="#h" transform="matrix(1,0,0,1,457.1465527853434,113.15522395684805) translate(423.63314814814817 14.917037037037037)"/><use xlink:href="#i" transform="matrix(1,0,0,1,457.1465527853434,113.15522395684805) translate(498.2875720164609 14.917037037037037)"/><use xlink:href="#j" transform="matrix(1,0,0,1,457.1465527853434,113.15522395684805) translate(515.2834567901234 14.917037037037037)"/><path d="M639.52 245c0-2.76 2.24-5 5-5h490c2.76 0 5 2.24 5 5v374c0 2.76-2.24 5-5 5h-490c-2.76 0-5-2.24-5-5z" fill="#fff"/><path d="M639.52 200h500v40h-500z" fill="#ccc"/><path d="M639.52 205c0-2.76 2.24-5 5-5h490c2.76 0 5 2.24 5 5v414c0 2.76-2.24 5-5 5h-490c-2.76 0-5-2.24-5-5zM639.52 240h500M889.52 240v384" stroke="#333" fill="none"/><use xlink:href="#k" transform="matrix(1,0,0,1,649.5213070194004,200) translate(0 23.6)"/><use xlink:href="#l" transform="matrix(1,0,0,1,644.5213070194004,242.5) translate(0 17.1)"/><use xlink:href="#m" transform="matrix(1,0,0,1,894.5213070194004,242.5) translate(0 17.1)"/><use xlink:href="#n" transform="matrix(1,0,0,1,894.5213070194004,242.5) translate(106.80000000000001 17.1)"/><use xlink:href="#o" transform="matrix(1,0,0,1,894.5213070194004,242.5) translate(149.35000000000002 17.1)"/><use xlink:href="#p" transform="matrix(1,0,0,1,644.5213070194004,274.5) translate(0 17.1)"/><use xlink:href="#q" transform="matrix(1,0,0,1,894.5213070194004,274.5) translate(0 17.1)"/><use xlink:href="#r" transform="matrix(1,0,0,1,644.5213070194004,306.5) translate(0 17.1)"/><use xlink:href="#q" transform="matrix(1,0,0,1,894.5213070194004,306.5) translate(0 17.1)"/><use xlink:href="#s" transform="matrix(1,0,0,1,644.5213070194004,338.5) translate(0 17.1)"/><use xlink:href="#t" transform="matrix(1,0,0,1,894.5213070194004,338.5) translate(0 17.1)"/><use xlink:href="#u" transform="matrix(1,0,0,1,644.5213070194004,370.5) translate(0 17.1)"/><use xlink:href="#q" transform="matrix(1,0,0,1,894.5213070194004,370.5) translate(0 17.1)"/><use xlink:href="#v" transform="matrix(1,0,0,1,644.5213070194004,402.5) translate(0 17.1)"/><use xlink:href="#q" transform="matrix(1,0,0,1,894.5213070194004,402.5) translate(0 17.1)"/><use xlink:href="#w" transform="matrix(1,0,0,1,644.5213070194004,434.5) translate(0 17.1)"/><use xlink:href="#q" transform="matrix(1,0,0,1,894.5213070194004,434.5) translate(0 17.1)"/><use xlink:href="#x" transform="matrix(1,0,0,1,644.5213070194004,466.5) translate(0 17.1)"/><use xlink:href="#y" transform="matrix(1,0,0,1,644.5213070194004,466.5) translate(53.900000000000006 17.1)"/><use xlink:href="#t" transform="matrix(1,0,0,1,894.5213070194004,466.5) translate(0 17.1)"/><use xlink:href="#z" transform="matrix(1,0,0,1,644.5213070194004,498.5) translate(0 17.1)"/><use xlink:href="#y" transform="matrix(1,0,0,1,644.5213070194004,498.5) translate(139.75 17.1)"/><use xlink:href="#A" transform="matrix(1,0,0,1,894.5213070194004,498.5) translate(0 17.1)"/><use xlink:href="#B" transform="matrix(1,0,0,1,644.5213070194004,530.5) translate(0 17.1)"/><use xlink:href="#y" transform="matrix(1,0,0,1,644.5213070194004,530.5) translate(131.4 17.1)"/><use xlink:href="#A" transform="matrix(1,0,0,1,894.5213070194004,530.5) translate(0 17.1)"/><use xlink:href="#C" transform="matrix(1,0,0,1,644.5213070194004,562.5) translate(0 17.1)"/><use xlink:href="#y" transform="matrix(1,0,0,1,644.5213070194004,562.5) translate(58 17.1)"/><use xlink:href="#q" transform="matrix(1,0,0,1,894.5213070194004,562.5) translate(0 17.1)"/><use xlink:href="#D" transform="matrix(1,0,0,1,644.5213070194004,594.5) translate(0 17.1)"/><use xlink:href="#E" transform="matrix(1,0,0,1,894.5213070194004,594.5) translate(0 17.1)"/><path d="M1305.9 380h400v33h-400z" fill="#fff"/><path d="M1305.9 412h400v33h-400z" fill="#e6e6e6"/><path d="M1305.9 444h400v32h-400z" fill="#fff"/><path d="M1305.9 340h400v40h-400z" fill="#ccc"/><path d="M1305.9 345c0-2.76 2.23-5 5-5h390c2.76 0 5 2.24 5 5v126c0 2.76-2.24 5-5 5h-390c-2.77 0-5-2.24-5-5zM1305.9 380h400M1469.08 380v96" stroke="#333" fill="none"/><use xlink:href="#F" transform="matrix(1,0,0,1,1315.896061253458,340) translate(0 23.6)"/><use xlink:href="#G" transform="matrix(1,0,0,1,1310.896061253458,382.5) translate(0 17.1)"/><use xlink:href="#H" transform="matrix(1,0,0,1,1310.896061253458,382.5) translate(73.80000000000001 17.1)"/><use xlink:href="#I" transform="matrix(1,0,0,1,1474.0799903592003,382.5) translate(0 17.1)"/><use xlink:href="#n" transform="matrix(1,0,0,1,1474.0799903592003,382.5) translate(116.80000000000001 17.1)"/><use xlink:href="#o" transform="matrix(1,0,0,1,1474.0799903592003,382.5) translate(159.35000000000002 17.1)"/><use xlink:href="#J" transform="matrix(1,0,0,1,1310.896061253458,414.5) translate(0 17.1)"/><use xlink:href="#K" transform="matrix(1,0,0,1,1474.0799903592003,414.5) translate(0 17.1)"/><use xlink:href="#L" transform="matrix(1,0,0,1,1310.896061253458,446.5) translate(0 17.1)"/><use xlink:href="#M" transform="matrix(1,0,0,1,1474.0799903592003,446.5) translate(0 17.1)"/><path d="M20 265c0-2.76 2.24-5 5-5h390c2.76 0 5 2.24 5 5v182c0 2.76-2.24 5-5 5H25c-2.76 0-5-2.24-5-5z" fill="#fff"/><path d="M20 220h400v40H20z" fill="#ccc"/><path d="M20 225c0-2.76 2.24-5 5-5h390c2.76 0 5 2.24 5 5v222c0 2.76-2.24 5-5 5H25c-2.76 0-5-2.24-5-5zM20 260h400M179.9 260v192" stroke="#333" fill="none"/><use xlink:href="#N" transform="matrix(1,0,0,1,30,220) translate(0 23.6)"/><use xlink:href="#O" transform="matrix(1,0,0,1,25,262.5) translate(0 17.1)"/><use xlink:href="#H" transform="matrix(1,0,0,1,25,262.5) translate(98.85000000000001 17.1)"/><use xlink:href="#P" transform="matrix(1,0,0,1,184.90471732671506,262.5) translate(0 16.96666666666667)"/><use xlink:href="#Q" transform="matrix(1,0,0,1,184.90471732671506,262.5) translate(122.10370370370372 16.96666666666667)"/><use xlink:href="#R" transform="matrix(1,0,0,1,184.90471732671506,262.5) translate(163.07777777777778 16.96666666666667)"/><use xlink:href="#S" transform="matrix(1,0,0,1,25,294.5) translate(0 17.1)"/><use xlink:href="#q" transform="matrix(1,0,0,1,184.90471732671506,294.5) translate(0 17.1)"/><use xlink:href="#T" transform="matrix(1,0,0,1,25,326.5) translate(0 17.1)"/><use xlink:href="#q" transform="matrix(1,0,0,1,184.90471732671506,326.5) translate(0 17.1)"/><use xlink:href="#U" transform="matrix(1,0,0,1,25,358.5) translate(0 17.1)"/><use xlink:href="#q" transform="matrix(1,0,0,1,184.90471732671506,358.5) translate(0 17.1)"/><use xlink:href="#V" transform="matrix(1,0,0,1,25,390.5) translate(0 17.1)"/><use xlink:href="#q" transform="matrix(1,0,0,1,184.90471732671506,390.5) translate(0 17.1)"/><use xlink:href="#W" transform="matrix(1,0,0,1,25,422.5) translate(0 17.1)"/><use xlink:href="#q" transform="matrix(1,0,0,1,184.90471732671506,422.5) translate(0 17.1)"/><path d="M699.52 776h380v33h-380z" fill="#fff"/><path d="M699.52 808h380v32h-380z" fill="#e6e6e6"/><path d="M699.52 736h380v40h-380z" fill="#ccc"/><path d="M699.52 741c0-2.76 2.24-5 5-5h370c2.76 0 5 2.24 5 5v94c0 2.76-2.24 5-5 5h-370c-2.76 0-5-2.24-5-5zM699.52 776h380M889.52 776v64" stroke="#333" fill="none"/><use xlink:href="#X" transform="matrix(1,0,0,1,709.5213070194004,735.9999999998179) translate(0 23.6)"/><use xlink:href="#Y" transform="matrix(1,0,0,1,704.5213070194004,778.4999999998179) translate(0 17.1)"/><use xlink:href="#H" transform="matrix(1,0,0,1,704.5213070194004,778.4999999998179) translate(122.75000000000001 17.1)"/><use xlink:href="#q" transform="matrix(1,0,0,1,894.5213070194004,778.4999999998179) translate(0 17.1)"/><use xlink:href="#Z" transform="matrix(1,0,0,1,704.5213070194004,810.4999999998179) translate(0 17.1)"/><use xlink:href="#q" transform="matrix(1,0,0,1,894.5213070194004,810.4999999998179) translate(0 17.1)"/><path d="M1140.52 480h70.2c6.62 0 12-5.37 12-12v-60c0-6.63 5.36-12 12-12h50.68" stroke="#333" fill="none"/><path d="M1140.53 480.5h-.5v-1h.5" fill="#333"/><path d="M1285.4 386v20M1305.4 396h-20" stroke="#333" fill="#fff"/><path d="M1159.43 512h51.28c6.64 0 12-5.37 12-12v-92c0-6.63 5.38-12 12-12h50.7" stroke="#333" fill="none"/><path d="M1140.24 502l20 10-20 10" stroke="#333" fill="#fff" fill-opacity="0"/><path d="M1140.24 512h20M1285.4 386v20M1305.4 396h-20" stroke="#333" fill="#fff"/><path d="M619.6 576h-8.58c-6.63 0-12 5.37-12 12v192c0 6.63 5.37 12 12 12h68" stroke="#333" fill="none"/><path d="M638.8 586l-20-10 20-10" stroke="#333" fill="#fff" fill-opacity="0"/><path d="M638.8 576h-20M679.02 782v20M699.02 792h-20" stroke="#333" fill="#fff"/><path d="M440.5 276H488c6.63 0 12 5.37 12 12v244c0 6.63 5.37 12 12 12h107.02" stroke="#333" fill="none"/><path d="M440.5 286v-20M420.5 276h20M619.02 534v20M639.02 544h-20" stroke="#333" fill="#fff"/><path d="M440.5 340h77.26c6.63 0 12-5.37 12-12v-60c0-6.63 5.37-12 12-12h77.26" stroke="#333" fill="none"/><path d="M440.5 350v-20M420.5 340h20M619.02 246v20M639.02 256h-20" stroke="#333" fill="#fff"/><path d="M40 685c0-2.76 2.24-5 5-5h383.15c2.76 0 5 2.24 5 5v54c0 2.76-2.24 5-5 5H45c-2.76 0-5-2.24-5-5z" fill="#fff"/><path d="M40 640h393.15v40H40z" fill="#ccc"/><path d="M40 645c0-2.76 2.24-5 5-5h383.15c2.76 0 5 2.24 5 5v94c0 2.76-2.24 5-5 5H45c-2.76 0-5-2.24-5-5zM40 680h393.15M227.52 680v64" stroke="#333" fill="none"/><use xlink:href="#aa" transform="matrix(1,0,0,1,50,640) translate(0 23.6)"/><use xlink:href="#ab" transform="matrix(1,0,0,1,45,682.5) translate(0 17.1)"/><use xlink:href="#H" transform="matrix(1,0,0,1,45,682.5) translate(95.85000000000001 17.1)"/><g><use xlink:href="#ac" transform="matrix(1,0,0,1,232.51539468133961,682.5) translate(0 16.96666666666667)"/><use xlink:href="#Q" transform="matrix(1,0,0,1,232.51539468133961,682.5) translate(102.84444444444445 16.96666666666667)"/><use xlink:href="#R" transform="matrix(1,0,0,1,232.51539468133961,682.5) translate(143.81851851851854 16.96666666666667)"/></g><g><use xlink:href="#ad" transform="matrix(1,0,0,1,45,714.5) translate(0 17.1)"/><use xlink:href="#ae" transform="matrix(1,0,0,1,45,714.5) translate(128.95 17.1)"/></g><g><use xlink:href="#q" transform="matrix(1,0,0,1,232.51539468133961,714.5) translate(0 17.1)"/></g><path d="M453.65 728h100.68c6.63 0 12 5.37 12 12v40c0 6.64 5.38 12 12 12h100.7" stroke="#333" fill="none"/><path d="M433.87 718l20 10-20 10" stroke="#333" fill="#fff" fill-opacity="0"/><path d="M433.87 728h20M453.87 738v-20M679.02 782v20M699.02 792h-20" stroke="#333" fill="#fff"/><path d="M453.65 696h70.68c6.63 0 12-5.37 12-12V396c0-6.63 5.38-12 12-12h70.7" stroke="#333" fill="none"/><path d="M433.87 686l20 10-20 10" stroke="#333" fill="#fff" fill-opacity="0"/><path d="M433.87 696h20M453.87 706v-20M619.02 374v20M639.02 384h-20" stroke="#333" fill="#fff"/><path d="M453.06 696h71.27c6.63 0 12-5.36 12-12V428c0-6.63 5.38-12 12-12h71.28" stroke="#333" fill="none"/><path d="M433.87 686l20 10-20 10" stroke="#333" fill="#fff" fill-opacity="0"/><path d="M433.87 696h20" stroke="#333" fill="#fff"/><path d="M638.8 426l-20-10 20-10" stroke="#333" fill="#fff" fill-opacity="0"/><path d="M638.8 416h-20" stroke="#333" fill="#fff"/><defs><path fill="#a9afb8" d="M185-48c-13 30-37 53-82 52C43 2 14-33 14-96s30-98 90-98c62 0 83 45 84 108H66c0 31 8 55 39 56 18 0 30-7 34-22zm-45-69c5-46-57-63-70-21-2 6-4 13-4 21h74" id="af"/><path fill="#a9afb8" d="M182-130c37 4 62 22 62 59C244 23 116-4 24 0v-248c84 5 203-23 205 63 0 31-19 50-47 55zM76-148c40-3 101 13 101-30 0-44-60-28-101-31v61zm0 110c48-3 116 14 116-37 0-48-69-32-116-35v72" id="ag"/><path fill="#a9afb8" d="M133-34C117-15 103 5 69 4 32 3 11-16 11-54c-1-60 55-63 116-61 1-26-3-47-28-47-18 1-26 9-28 27l-52-2c7-38 36-58 82-57s74 22 75 68l1 82c-1 14 12 18 25 15v27c-30 8-71 5-69-32zm-48 3c29 0 43-24 42-57-32 0-66-3-65 30 0 17 8 27 23 27" id="ah"/><path fill="#a9afb8" d="M123 10C108 53 80 86 19 72V37c35 8 53-11 59-39L3-190h52l48 148c12-52 28-100 44-148h51" id="ai"/><g id="a"><use transform="matrix(0.0728395061728395,0,0,0.0728395061728395,0,0)" xlink:href="#af"/><use transform="matrix(0.0728395061728395,0,0,0.0728395061728395,14.5679012345679,0)" xlink:href="#ag"/><use transform="matrix(0.0728395061728395,0,0,0.0728395061728395,33.43333333333333,0)" xlink:href="#ah"/><use transform="matrix(0.0728395061728395,0,0,0.0728395061728395,48.00123456790123,0)" xlink:href="#ai"/></g><path fill="#a9afb8" d="M67-125c0 53 21 87 73 88 37 1 54-22 65-47l45 17C233-25 199 4 140 4 58 4 20-42 15-125 8-235 124-281 211-232c18 10 29 29 36 50l-46 12c-8-25-30-41-62-41-52 0-71 34-72 86" id="aj"/><path fill="#a9afb8" d="M115-3C79 11 28 4 28-45v-112H4v-33h27l15-45h31v45h36v33H77v99c-1 23 16 31 38 25v30" id="ak"/><path fill="#a9afb8" d="M25 0v-261h50V0H25" id="al"/><path fill="#a9afb8" d="M110-194c64 0 96 36 96 99 0 64-35 99-97 99-61 0-95-36-95-99 0-62 34-99 96-99zm-1 164c35 0 45-28 45-65 0-40-10-65-43-65-34 0-45 26-45 65 0 36 10 65 43 65" id="am"/><path fill="#a9afb8" d="M195-6C206 82 75 100 31 46c-4-6-6-13-8-21l49-6c3 16 16 24 34 25 40 0 42-37 40-79-11 22-30 35-61 35-53 0-70-43-70-97 0-56 18-96 73-97 30 0 46 14 59 34l2-30h47zm-90-29c32 0 41-27 41-63 0-35-9-62-40-62-32 0-39 29-40 63 0 36 9 62 39 62" id="an"/><g id="b"><use transform="matrix(0.0728395061728395,0,0,0.0728395061728395,0,0)" xlink:href="#aj"/><use transform="matrix(0.0728395061728395,0,0,0.0728395061728395,18.86543209876543,0)" xlink:href="#ah"/><use transform="matrix(0.0728395061728395,0,0,0.0728395061728395,33.43333333333333,0)" xlink:href="#ak"/><use transform="matrix(0.0728395061728395,0,0,0.0728395061728395,42.10123456790124,0)" xlink:href="#ah"/><use transform="matrix(0.0728395061728395,0,0,0.0728395061728395,56.66913580246913,0)" xlink:href="#al"/><use transform="matrix(0.0728395061728395,0,0,0.0728395061728395,63.95308641975308,0)" xlink:href="#am"/><use transform="matrix(0.0728395061728395,0,0,0.0728395061728395,79.90493827160493,0)" xlink:href="#an"/></g><path fill="#a9afb8" d="M199 0l-22-63H83L61 0H9l90-248h61L250 0h-51zm-33-102l-36-108c-10 38-24 72-36 108h72" id="ao"/><path fill="#a9afb8" d="M24-248c93 1 206-16 204 79-1 75-69 88-152 82V0H24v-248zm52 121c47 0 100 7 100-41 0-47-54-39-100-39v80" id="ap"/><path fill="#a9afb8" d="M24 0v-248h52V0H24" id="aq"/><g id="c"><use transform="matrix(0.0728395061728395,0,0,0.0728395061728395,0,0)" xlink:href="#ao"/><use transform="matrix(0.0728395061728395,0,0,0.0728395061728395,18.86543209876543,0)" xlink:href="#ap"/><use transform="matrix(0.0728395061728395,0,0,0.0728395061728395,36.34691358024691,0)" xlink:href="#aq"/></g><path fill="#a9afb8" d="M24 0v-248h195v40H76v63h132v40H76v65h150V0H24" id="ar"/><path fill="#a9afb8" d="M240-174c0 40-23 61-54 70L253 0h-59l-57-94H76V0H24v-248c93 4 217-23 216 74zM76-134c48-2 112 12 112-38 0-48-66-32-112-35v73" id="as"/><path fill="#a9afb8" d="M24-248c120-7 223 5 221 122C244-46 201 0 124 0H24v-248zM76-40c74 7 117-18 117-86 0-67-45-88-117-82v168" id="at"/><g id="d"><use transform="matrix(0.0728395061728395,0,0,0.0728395061728395,0,0)" xlink:href="#ar"/><use transform="matrix(0.0728395061728395,0,0,0.0728395061728395,17.48148148148148,0)" xlink:href="#as"/><use transform="matrix(0.0728395061728395,0,0,0.0728395061728395,36.34691358024691,0)" xlink:href="#at"/></g><path fill="#a9afb8" d="M30 0v-248h33v221h125V0H30" id="au"/><path fill="#a9afb8" d="M141-36C126-15 110 5 73 4 37 3 15-17 15-53c-1-64 63-63 125-63 3-35-9-54-41-54-24 1-41 7-42 31l-33-3c5-37 33-52 76-52 45 0 72 20 72 64v82c-1 20 7 32 28 27v20c-31 9-61-2-59-35zM48-53c0 20 12 33 32 33 41-3 63-29 60-74-43 2-92-5-92 41" id="av"/><path fill="#a9afb8" d="M96-169c-40 0-48 33-48 73s9 75 48 75c24 0 41-14 43-38l32 2c-6 37-31 61-74 61-59 0-76-41-82-99-10-93 101-131 147-64 4 7 5 14 7 22l-32 3c-4-21-16-35-41-35" id="aw"/><path fill="#a9afb8" d="M106-169C34-169 62-67 57 0H25v-261h32l-1 103c12-21 28-36 61-36 89 0 53 116 60 194h-32v-121c2-32-8-49-39-48" id="ax"/><path fill="#a9afb8" d="M24 0v-261h32V0H24" id="ay"/><path fill="#a9afb8" d="M117-194c89-4 53 116 60 194h-32v-121c0-31-8-49-39-48C34-167 62-67 57 0H25l-1-190h30c1 10-1 24 2 32 11-22 29-35 61-36" id="az"/><g id="e"><use transform="matrix(0.04248971193415638,0,0,0.04248971193415638,0,0)" xlink:href="#au"/><use transform="matrix(0.04248971193415638,0,0,0.04248971193415638,8.497942386831275,0)" xlink:href="#av"/><use transform="matrix(0.04248971193415638,0,0,0.04248971193415638,16.99588477366255,0)" xlink:href="#aw"/><use transform="matrix(0.04248971193415638,0,0,0.04248971193415638,24.644032921810698,0)" xlink:href="#ax"/><use transform="matrix(0.04248971193415638,0,0,0.04248971193415638,33.141975308641975,0)" xlink:href="#ay"/><use transform="matrix(0.04248971193415638,0,0,0.04248971193415638,36.498662551440326,0)" xlink:href="#av"/><use transform="matrix(0.04248971193415638,0,0,0.04248971193415638,44.9966049382716,0)" xlink:href="#az"/></g><path fill="#a9afb8" d="M143 4C61 4 22-44 18-125c-5-107 100-154 193-111 17 8 29 25 37 43l-32 9c-13-25-37-40-76-40-61 0-88 39-88 99 0 61 29 100 91 101 35 0 62-11 79-27v-45h-74v-28h105v86C228-13 192 4 143 4" id="aA"/><path fill="#a9afb8" d="M114-163C36-179 61-72 57 0H25l-1-190h30c1 12-1 29 2 39 6-27 23-49 58-41v29" id="aB"/><path fill="#a9afb8" d="M100-194c63 0 86 42 84 106H49c0 40 14 67 53 68 26 1 43-12 49-29l28 8c-11 28-37 45-77 45C44 4 14-33 15-96c1-61 26-98 85-98zm52 81c6-60-76-77-97-28-3 7-6 17-6 28h103" id="aC"/><path fill="#a9afb8" d="M108 0H70L1-190h34L89-25l56-165h34" id="aD"/><g id="f"><use transform="matrix(0.04248971193415638,0,0,0.04248971193415638,0,0)" xlink:href="#aA"/><use transform="matrix(0.04248971193415638,0,0,0.04248971193415638,11.897119341563785,0)" xlink:href="#aB"/><use transform="matrix(0.04248971193415638,0,0,0.04248971193415638,16.953395061728394,0)" xlink:href="#aC"/><use transform="matrix(0.04248971193415638,0,0,0.04248971193415638,25.45133744855967,0)" xlink:href="#aD"/><use transform="matrix(0.04248971193415638,0,0,0.04248971193415638,33.099485596707815,0)" xlink:href="#aC"/></g><path fill="#a9afb8" d="M32 76v-337h29V76H32" id="aE"/><use transform="matrix(0.04248971193415638,0,0,0.04248971193415638,0,0)" xlink:href="#aE" id="g"/><path fill="#a9afb8" d="M30-248c118-7 216 8 213 122C240-48 200 0 122 0H30v-248zM63-27c89 8 146-16 146-99s-60-101-146-95v194" id="aF"/><path fill="#a9afb8" d="M210-169c-67 3-38 105-44 169h-31v-121c0-29-5-50-35-48C34-165 62-65 56 0H25l-1-190h30c1 10-1 24 2 32 10-44 99-50 107 0 11-21 27-35 58-36 85-2 47 119 55 194h-31v-121c0-29-5-49-35-48" id="aG"/><path fill="#a9afb8" d="M115-194c53 0 69 39 70 98 0 66-23 100-70 100C84 3 66-7 56-30L54 0H23l1-261h32v101c10-23 28-34 59-34zm-8 174c40 0 45-34 45-75 0-40-5-75-45-74-42 0-51 32-51 76 0 43 10 73 51 73" id="aH"/><g id="h"><use transform="matrix(0.04248971193415638,0,0,0.04248971193415638,0,0)" xlink:href="#aF"/><use transform="matrix(0.04248971193415638,0,0,0.04248971193415638,11.004835390946502,0)" xlink:href="#aC"/><use transform="matrix(0.04248971193415638,0,0,0.04248971193415638,19.502777777777776,0)" xlink:href="#aw"/><use transform="matrix(0.04248971193415638,0,0,0.04248971193415638,27.150925925925925,0)" xlink:href="#aC"/><use transform="matrix(0.04248971193415638,0,0,0.04248971193415638,35.6488683127572,0)" xlink:href="#aG"/><use transform="matrix(0.04248971193415638,0,0,0.04248971193415638,48.35329218106995,0)" xlink:href="#aH"/><use transform="matrix(0.04248971193415638,0,0,0.04248971193415638,56.851234567901244,0)" xlink:href="#aC"/><use transform="matrix(0.04248971193415638,0,0,0.04248971193415638,65.34917695473251,0)" xlink:href="#aB"/></g><path fill="#a9afb8" d="M54-142c48-35 137-8 131 61C196 18 31 33 14-55l32-4c7 23 22 37 52 37 35-1 51-22 54-58 4-55-73-65-99-34H22l8-134h141v27H59" id="aI"/><path fill="#a9afb8" d="M68-38c1 34 0 65-14 84H32c9-13 17-26 17-46H33v-38h35" id="aJ"/><g id="i"><use transform="matrix(0.04248971193415638,0,0,0.04248971193415638,0,0)" xlink:href="#aI"/><use transform="matrix(0.04248971193415638,0,0,0.04248971193415638,8.497942386831275,0)" xlink:href="#aJ"/></g><path fill="#a9afb8" d="M101-251c82-7 93 87 43 132L82-64C71-53 59-42 53-27h129V0H18c2-99 128-94 128-182 0-28-16-43-45-43s-46 15-49 41l-32-3c6-41 34-60 81-64" id="aK"/><path fill="#a9afb8" d="M101-251c68 0 85 55 85 127S166 4 100 4C33 4 14-52 14-124c0-73 17-127 87-127zm-1 229c47 0 54-49 54-102s-4-102-53-102c-51 0-55 48-55 102 0 53 5 102 54 102" id="aL"/><path fill="#a9afb8" d="M27 0v-27h64v-190l-56 39v-29l58-41h29v221h61V0H27" id="aM"/><g id="j"><use transform="matrix(0.04248971193415638,0,0,0.04248971193415638,0,0)" xlink:href="#aK"/><use transform="matrix(0.04248971193415638,0,0,0.04248971193415638,8.497942386831275,0)" xlink:href="#aL"/><use transform="matrix(0.04248971193415638,0,0,0.04248971193415638,16.99588477366255,0)" xlink:href="#aK"/><use transform="matrix(0.04248971193415638,0,0,0.04248971193415638,25.493827160493822,0)" xlink:href="#aM"/></g><path fill="#333" d="M30-248c87 1 191-15 191 75 0 78-77 80-158 76V0H30v-248zm33 125c57 0 124 11 124-50 0-59-68-47-124-48v98" id="aN"/><path fill="#333" d="M114-163C36-179 61-72 57 0H25l-1-190h30c1 12-1 29 2 39 6-27 23-49 58-41v29" id="aO"/><path fill="#333" d="M100-194c62-1 85 37 85 99 1 63-27 99-86 99S16-35 15-95c0-66 28-99 85-99zM99-20c44 1 53-31 53-75 0-43-8-75-51-75s-53 32-53 75 10 74 51 75" id="aP"/><path fill="#333" d="M85-194c31 0 48 13 60 33l-1-100h32l1 261h-30c-2-10 0-23-3-31C134-8 116 4 85 4 32 4 16-35 15-94c0-66 23-100 70-100zm9 24c-40 0-46 34-46 75 0 40 6 74 45 74 42 0 51-32 51-76 0-42-9-74-50-73" id="aQ"/><path fill="#333" d="M84 4C-5 8 30-112 23-190h32v120c0 31 7 50 39 49 72-2 45-101 50-169h31l1 190h-30c-1-10 1-25-2-33-11 22-28 36-60 37" id="aR"/><path fill="#333" d="M96-169c-40 0-48 33-48 73s9 75 48 75c24 0 41-14 43-38l32 2c-6 37-31 61-74 61-59 0-76-41-82-99-10-93 101-131 147-64 4 7 5 14 7 22l-32 3c-4-21-16-35-41-35" id="aS"/><path fill="#333" d="M59-47c-2 24 18 29 38 22v24C64 9 27 4 27-40v-127H5v-23h24l9-43h21v43h35v23H59v120" id="aT"/><g id="k"><use transform="matrix(0.05,0,0,0.05,0,0)" xlink:href="#aN"/><use transform="matrix(0.05,0,0,0.05,12,0)" xlink:href="#aO"/><use transform="matrix(0.05,0,0,0.05,17.95,0)" xlink:href="#aP"/><use transform="matrix(0.05,0,0,0.05,27.950000000000003,0)" xlink:href="#aQ"/><use transform="matrix(0.05,0,0,0.05,37.95,0)" xlink:href="#aR"/><use transform="matrix(0.05,0,0,0.05,47.95,0)" xlink:href="#aS"/><use transform="matrix(0.05,0,0,0.05,56.95,0)" xlink:href="#aT"/></g><path fill="#333" d="M100-194c63 0 86 42 84 106H49c0 40 14 67 53 68 26 1 43-12 49-29l28 8c-11 28-37 45-77 45C44 4 14-33 15-96c1-61 26-98 85-98zm52 81c6-60-76-77-97-28-3 7-6 17-6 28h103" id="aU"/><path fill="#333" d="M115-194c55 1 70 41 70 98S169 2 115 4C84 4 66-9 55-30l1 105H24l-1-265h31l2 30c10-21 28-34 59-34zm-8 174c40 0 45-34 45-75s-6-73-45-74c-42 0-51 32-51 76 0 43 10 73 51 73" id="aV"/><path fill="#333" d="M24-231v-30h32v30H24zM24 0v-190h32V0H24" id="aW"/><path fill="#333" d="M87 75C49 33 22-17 22-94c0-76 28-126 65-167h31c-38 41-64 92-64 168S80 34 118 75H87" id="aX"/><path fill="#333" d="M194 0L95-120 63-95V0H30v-248h33v124l119-124h40L117-140 236 0h-42" id="aY"/><path fill="#333" d="M33-261c38 41 65 92 65 168S71 34 33 75H2C39 34 66-17 66-93S39-220 2-261h31" id="aZ"/><g id="l"><use transform="matrix(0.05,0,0,0.05,0,0)" xlink:href="#aU"/><use transform="matrix(0.05,0,0,0.05,10,0)" xlink:href="#aV"/><use transform="matrix(0.05,0,0,0.05,20,0)" xlink:href="#aW"/><use transform="matrix(0.05,0,0,0.05,23.95,0)" xlink:href="#aQ"/><use transform="matrix(0.05,0,0,0.05,33.95,0)" xlink:href="#aX"/><use transform="matrix(0.05,0,0,0.05,39.900000000000006,0)" xlink:href="#aN"/><use transform="matrix(0.05,0,0,0.05,51.900000000000006,0)" xlink:href="#aY"/><use transform="matrix(0.05,0,0,0.05,63.900000000000006,0)" xlink:href="#aZ"/></g><path fill="#333" d="M108 0H70L1-190h34L89-25l56-165h34" id="ba"/><path fill="#333" d="M141-36C126-15 110 5 73 4 37 3 15-17 15-53c-1-64 63-63 125-63 3-35-9-54-41-54-24 1-41 7-42 31l-33-3c5-37 33-52 76-52 45 0 72 20 72 64v82c-1 20 7 32 28 27v20c-31 9-61-2-59-35zM48-53c0 20 12 33 32 33 41-3 63-29 60-74-43 2-92-5-92 41" id="bb"/><path fill="#333" d="M106-169C34-169 62-67 57 0H25v-261h32l-1 103c12-21 28-36 61-36 89 0 53 116 60 194h-32v-121c2-32-8-49-39-48" id="bc"/><path fill="#333" d="M101-251c82-7 93 87 43 132L82-64C71-53 59-42 53-27h129V0H18c2-99 128-94 128-182 0-28-16-43-45-43s-46 15-49 41l-32-3c6-41 34-60 81-64" id="bd"/><path fill="#333" d="M54-142c48-35 137-8 131 61C196 18 31 33 14-55l32-4c7 23 22 37 52 37 35-1 51-22 54-58 4-55-73-65-99-34H22l8-134h141v27H59" id="be"/><g id="m"><use transform="matrix(0.05,0,0,0.05,0,0)" xlink:href="#ba"/><use transform="matrix(0.05,0,0,0.05,9,0)" xlink:href="#bb"/><use transform="matrix(0.05,0,0,0.05,19,0)" xlink:href="#aO"/><use transform="matrix(0.05,0,0,0.05,24.95,0)" xlink:href="#aS"/><use transform="matrix(0.05,0,0,0.05,33.95,0)" xlink:href="#bc"/><use transform="matrix(0.05,0,0,0.05,43.95,0)" xlink:href="#bb"/><use transform="matrix(0.05,0,0,0.05,53.95,0)" xlink:href="#aO"/><use transform="matrix(0.05,0,0,0.05,59.900000000000006,0)" xlink:href="#aX"/><use transform="matrix(0.05,0,0,0.05,65.85000000000001,0)" xlink:href="#bd"/><use transform="matrix(0.05,0,0,0.05,75.85000000000001,0)" xlink:href="#be"/><use transform="matrix(0.05,0,0,0.05,85.85000000000001,0)" xlink:href="#be"/><use transform="matrix(0.05,0,0,0.05,95.85000000000001,0)" xlink:href="#aZ"/></g><path fill="#333" d="M190 0L58-211 59 0H30v-248h39L202-35l-2-213h31V0h-41" id="bf"/><path fill="#333" d="M140-251c81 0 123 46 123 126C263-46 219 4 140 4 59 4 17-45 17-125s42-126 123-126zm0 227c63 0 89-41 89-101s-29-99-89-99c-61 0-89 39-89 99S79-25 140-24" id="bg"/><path fill="#333" d="M127-220V0H93v-220H8v-28h204v28h-85" id="bh"/><g id="n"><use transform="matrix(0.05,0,0,0.05,0,0)" xlink:href="#bf"/><use transform="matrix(0.05,0,0,0.05,12.950000000000001,0)" xlink:href="#bg"/><use transform="matrix(0.05,0,0,0.05,26.950000000000003,0)" xlink:href="#bh"/></g><path fill="#333" d="M232-93c-1 65-40 97-104 97C67 4 28-28 28-90v-158h33c8 89-33 224 67 224 102 0 64-133 71-224h33v155" id="bi"/><path fill="#333" d="M30 0v-248h33v221h125V0H30" id="bj"/><g id="o"><use transform="matrix(0.05,0,0,0.05,0,0)" xlink:href="#bf"/><use transform="matrix(0.05,0,0,0.05,12.950000000000001,0)" xlink:href="#bi"/><use transform="matrix(0.05,0,0,0.05,25.900000000000002,0)" xlink:href="#bj"/><use transform="matrix(0.05,0,0,0.05,35.900000000000006,0)" xlink:href="#bj"/></g><path d="M59-47c-2 24 18 29 38 22v24C64 9 27 4 27-40v-127H5v-23h24l9-43h21v43h35v23H59v120" id="bk"/><path d="M24-231v-30h32v30H24zM24 0v-190h32V0H24" id="bl"/><path d="M24 0v-261h32V0H24" id="bm"/><path d="M100-194c63 0 86 42 84 106H49c0 40 14 67 53 68 26 1 43-12 49-29l28 8c-11 28-37 45-77 45C44 4 14-33 15-96c1-61 26-98 85-98zm52 81c6-60-76-77-97-28-3 7-6 17-6 28h103" id="bn"/><g id="p"><use transform="matrix(0.05,0,0,0.05,0,0)" xlink:href="#bk"/><use transform="matrix(0.05,0,0,0.05,5,0)" xlink:href="#bl"/><use transform="matrix(0.05,0,0,0.05,8.95,0)" xlink:href="#bk"/><use transform="matrix(0.05,0,0,0.05,13.949999999999998,0)" xlink:href="#bm"/><use transform="matrix(0.05,0,0,0.05,17.9,0)" xlink:href="#bn"/></g><g id="q"><use transform="matrix(0.05,0,0,0.05,0,0)" xlink:href="#ba"/><use transform="matrix(0.05,0,0,0.05,9,0)" xlink:href="#bb"/><use transform="matrix(0.05,0,0,0.05,19,0)" xlink:href="#aO"/><use transform="matrix(0.05,0,0,0.05,24.95,0)" xlink:href="#aS"/><use transform="matrix(0.05,0,0,0.05,33.95,0)" xlink:href="#bc"/><use transform="matrix(0.05,0,0,0.05,43.95,0)" xlink:href="#bb"/><use transform="matrix(0.05,0,0,0.05,53.95,0)" xlink:href="#aO"/><use transform="matrix(0.05,0,0,0.05,59.900000000000006,0)" xlink:href="#aX"/><use transform="matrix(0.05,0,0,0.05,65.85000000000001,0)" xlink:href="#bd"/><use transform="matrix(0.05,0,0,0.05,75.85000000000001,0)" xlink:href="#be"/><use transform="matrix(0.05,0,0,0.05,85.85000000000001,0)" xlink:href="#be"/><use transform="matrix(0.05,0,0,0.05,95.85000000000001,0)" xlink:href="#aZ"/></g><path d="M115-194c53 0 69 39 70 98 0 66-23 100-70 100C84 3 66-7 56-30L54 0H23l1-261h32v101c10-23 28-34 59-34zm-8 174c40 0 45-34 45-75 0-40-5-75-45-74-42 0-51 32-51 76 0 43 10 73 51 73" id="bo"/><path d="M114-163C36-179 61-72 57 0H25l-1-190h30c1 12-1 29 2 39 6-27 23-49 58-41v29" id="bp"/><path d="M141-36C126-15 110 5 73 4 37 3 15-17 15-53c-1-64 63-63 125-63 3-35-9-54-41-54-24 1-41 7-42 31l-33-3c5-37 33-52 76-52 45 0 72 20 72 64v82c-1 20 7 32 28 27v20c-31 9-61-2-59-35zM48-53c0 20 12 33 32 33 41-3 63-29 60-74-43 2-92-5-92 41" id="bq"/><path d="M117-194c89-4 53 116 60 194h-32v-121c0-31-8-49-39-48C34-167 62-67 57 0H25l-1-190h30c1 10-1 24 2 32 11-22 29-35 61-36" id="br"/><path d="M85-194c31 0 48 13 60 33l-1-100h32l1 261h-30c-2-10 0-23-3-31C134-8 116 4 85 4 32 4 16-35 15-94c0-66 23-100 70-100zm9 24c-40 0-46 34-46 75 0 40 6 74 45 74 42 0 51-32 51-76 0-42-9-74-50-73" id="bs"/><g id="r"><use transform="matrix(0.05,0,0,0.05,0,0)" xlink:href="#bo"/><use transform="matrix(0.05,0,0,0.05,10,0)" xlink:href="#bp"/><use transform="matrix(0.05,0,0,0.05,15.949999999999998,0)" xlink:href="#bq"/><use transform="matrix(0.05,0,0,0.05,25.950000000000003,0)" xlink:href="#br"/><use transform="matrix(0.05,0,0,0.05,35.95,0)" xlink:href="#bs"/></g><path fill="#333" d="M135-143c-3-34-86-38-87 0 15 53 115 12 119 90S17 21 10-45l28-5c4 36 97 45 98 0-10-56-113-15-118-90-4-57 82-63 122-42 12 7 21 19 24 35" id="bt"/><path fill="#333" d="M117-194c89-4 53 116 60 194h-32v-121c0-31-8-49-39-48C34-167 62-67 57 0H25l-1-190h30c1 10-1 24 2 32 11-22 29-35 61-36" id="bu"/><g id="s"><use transform="matrix(0.05,0,0,0.05,0,0)" xlink:href="#aQ"/><use transform="matrix(0.05,0,0,0.05,10,0)" xlink:href="#aU"/><use transform="matrix(0.05,0,0,0.05,20,0)" xlink:href="#bt"/><use transform="matrix(0.05,0,0,0.05,29,0)" xlink:href="#aS"/><use transform="matrix(0.05,0,0,0.05,38,0)" xlink:href="#aO"/><use transform="matrix(0.05,0,0,0.05,43.95,0)" xlink:href="#aW"/><use transform="matrix(0.05,0,0,0.05,47.900000000000006,0)" xlink:href="#aV"/><use transform="matrix(0.05,0,0,0.05,57.900000000000006,0)" xlink:href="#aT"/><use transform="matrix(0.05,0,0,0.05,62.900000000000006,0)" xlink:href="#aW"/><use transform="matrix(0.05,0,0,0.05,66.85000000000001,0)" xlink:href="#aP"/><use transform="matrix(0.05,0,0,0.05,76.85000000000001,0)" xlink:href="#bu"/></g><path fill="#333" d="M99-251c64 0 84 50 84 122C183-37 130 33 47-8c-14-7-20-23-25-40l30-5c6 39 69 39 84 7 9-19 16-44 16-74-10 22-31 35-62 35-49 0-73-33-73-83 0-54 28-83 82-83zm-1 141c31-1 51-18 51-49 0-36-14-67-51-67-34 0-49 23-49 58 0 34 15 58 49 58" id="bv"/><g id="t"><use transform="matrix(0.05,0,0,0.05,0,0)" xlink:href="#ba"/><use transform="matrix(0.05,0,0,0.05,9,0)" xlink:href="#bb"/><use transform="matrix(0.05,0,0,0.05,19,0)" xlink:href="#aO"/><use transform="matrix(0.05,0,0,0.05,24.95,0)" xlink:href="#aS"/><use transform="matrix(0.05,0,0,0.05,33.95,0)" xlink:href="#bc"/><use transform="matrix(0.05,0,0,0.05,43.95,0)" xlink:href="#bb"/><use transform="matrix(0.05,0,0,0.05,53.95,0)" xlink:href="#aO"/><use transform="matrix(0.05,0,0,0.05,59.900000000000006,0)" xlink:href="#aX"/><use transform="matrix(0.05,0,0,0.05,65.85000000000001,0)" xlink:href="#bv"/><use transform="matrix(0.05,0,0,0.05,75.85000000000001,0)" xlink:href="#bv"/><use transform="matrix(0.05,0,0,0.05,85.85000000000001,0)" xlink:href="#bv"/><use transform="matrix(0.05,0,0,0.05,95.85000000000001,0)" xlink:href="#bv"/><use transform="matrix(0.05,0,0,0.05,105.85000000000001,0)" xlink:href="#bv"/><use transform="matrix(0.05,0,0,0.05,115.85000000000001,0)" xlink:href="#aZ"/></g><path d="M115-194c55 1 70 41 70 98S169 2 115 4C84 4 66-9 55-30l1 105H24l-1-265h31l2 30c10-21 28-34 59-34zm-8 174c40 0 45-34 45-75s-6-73-45-74c-42 0-51 32-51 76 0 43 10 73 51 73" id="bw"/><path d="M210-169c-67 3-38 105-44 169h-31v-121c0-29-5-50-35-48C34-165 62-65 56 0H25l-1-190h30c1 10-1 24 2 32 10-44 99-50 107 0 11-21 27-35 58-36 85-2 47 119 55 194h-31v-121c0-29-5-49-35-48" id="bx"/><path d="M179-190L93 31C79 59 56 82 12 73V49c39 6 53-20 64-50L1-190h34L92-34l54-156h33" id="by"/><path d="M212-179c-10-28-35-45-73-45-59 0-87 40-87 99 0 60 29 101 89 101 43 0 62-24 78-52l27 14C228-24 195 4 139 4 59 4 22-46 18-125c-6-104 99-153 187-111 19 9 31 26 39 46" id="bz"/><path d="M177-190C167-65 218 103 67 71c-23-6-38-20-44-43l32-5c15 47 100 32 89-28v-30C133-14 115 1 83 1 29 1 15-40 15-95c0-56 16-97 71-98 29-1 48 16 59 35 1-10 0-23 2-32h30zM94-22c36 0 50-32 50-73 0-42-14-75-50-75-39 0-46 34-46 75s6 73 46 73" id="bA"/><path d="M100-194c62-1 85 37 85 99 1 63-27 99-86 99S16-35 15-95c0-66 28-99 85-99zM99-20c44 1 53-31 53-75 0-43-8-75-51-75s-53 32-53 75 10 74 51 75" id="bB"/><path d="M33 0v-248h34V0H33" id="bC"/><path d="M30-248c118-7 216 8 213 122C240-48 200 0 122 0H30v-248zM63-27c89 8 146-16 146-99s-60-101-146-95v194" id="bD"/><g id="u"><use transform="matrix(0.05,0,0,0.05,0,0)" xlink:href="#bw"/><use transform="matrix(0.05,0,0,0.05,10,0)" xlink:href="#bp"/><use transform="matrix(0.05,0,0,0.05,15.949999999999998,0)" xlink:href="#bl"/><use transform="matrix(0.05,0,0,0.05,19.9,0)" xlink:href="#bx"/><use transform="matrix(0.05,0,0,0.05,34.85,0)" xlink:href="#bq"/><use transform="matrix(0.05,0,0,0.05,44.85,0)" xlink:href="#bp"/><use transform="matrix(0.05,0,0,0.05,50.800000000000004,0)" xlink:href="#by"/><use transform="matrix(0.05,0,0,0.05,59.800000000000004,0)" xlink:href="#bz"/><use transform="matrix(0.05,0,0,0.05,72.75,0)" xlink:href="#bq"/><use transform="matrix(0.05,0,0,0.05,82.75,0)" xlink:href="#bk"/><use transform="matrix(0.05,0,0,0.05,87.75,0)" xlink:href="#bn"/><use transform="matrix(0.05,0,0,0.05,97.75,0)" xlink:href="#bA"/><use transform="matrix(0.05,0,0,0.05,107.75,0)" xlink:href="#bB"/><use transform="matrix(0.05,0,0,0.05,117.75,0)" xlink:href="#bp"/><use transform="matrix(0.05,0,0,0.05,123.7,0)" xlink:href="#by"/><use transform="matrix(0.05,0,0,0.05,132.7,0)" xlink:href="#bC"/><use transform="matrix(0.05,0,0,0.05,137.7,0)" xlink:href="#bD"/></g><path d="M106-169C34-169 62-67 57 0H25v-261h32l-1 103c12-21 28-36 61-36 89 0 53 116 60 194h-32v-121c2-32-8-49-39-48" id="bE"/><path d="M205 0l-28-72H64L36 0H1l101-248h38L239 0h-34zm-38-99l-47-123c-12 45-31 82-46 123h93" id="bF"/><path d="M96-169c-40 0-48 33-48 73s9 75 48 75c24 0 41-14 43-38l32 2c-6 37-31 61-74 61-59 0-76-41-82-99-10-93 101-131 147-64 4 7 5 14 7 22l-32 3c-4-21-16-35-41-35" id="bG"/><path d="M135-143c-3-34-86-38-87 0 15 53 115 12 119 90S17 21 10-45l28-5c4 36 97 45 98 0-10-56-113-15-118-90-4-57 82-63 122-42 12 7 21 19 24 35" id="bH"/><g id="v"><use transform="matrix(0.05,0,0,0.05,0,0)" xlink:href="#bB"/><use transform="matrix(0.05,0,0,0.05,10,0)" xlink:href="#bk"/><use transform="matrix(0.05,0,0,0.05,15,0)" xlink:href="#bE"/><use transform="matrix(0.05,0,0,0.05,25,0)" xlink:href="#bn"/><use transform="matrix(0.05,0,0,0.05,35,0)" xlink:href="#bp"/><use transform="matrix(0.05,0,0,0.05,40.95,0)" xlink:href="#bF"/><use transform="matrix(0.05,0,0,0.05,52.95,0)" xlink:href="#bw"/><use transform="matrix(0.05,0,0,0.05,62.95,0)" xlink:href="#bw"/><use transform="matrix(0.05,0,0,0.05,72.95,0)" xlink:href="#bm"/><use transform="matrix(0.05,0,0,0.05,76.9,0)" xlink:href="#bl"/><use transform="matrix(0.05,0,0,0.05,80.85000000000001,0)" xlink:href="#bG"/><use transform="matrix(0.05,0,0,0.05,89.85000000000001,0)" xlink:href="#bq"/><use transform="matrix(0.05,0,0,0.05,99.85000000000001,0)" xlink:href="#bo"/><use transform="matrix(0.05,0,0,0.05,109.85000000000001,0)" xlink:href="#bm"/><use transform="matrix(0.05,0,0,0.05,113.80000000000001,0)" xlink:href="#bn"/><use transform="matrix(0.05,0,0,0.05,123.80000000000001,0)" xlink:href="#bz"/><use transform="matrix(0.05,0,0,0.05,136.75,0)" xlink:href="#bq"/><use transform="matrix(0.05,0,0,0.05,146.75,0)" xlink:href="#bk"/><use transform="matrix(0.05,0,0,0.05,151.75,0)" xlink:href="#bn"/><use transform="matrix(0.05,0,0,0.05,161.75,0)" xlink:href="#bA"/><use transform="matrix(0.05,0,0,0.05,171.75,0)" xlink:href="#bB"/><use transform="matrix(0.05,0,0,0.05,181.75,0)" xlink:href="#bp"/><use transform="matrix(0.05,0,0,0.05,187.7,0)" xlink:href="#by"/><use transform="matrix(0.05,0,0,0.05,196.7,0)" xlink:href="#bC"/><use transform="matrix(0.05,0,0,0.05,201.7,0)" xlink:href="#bs"/><use transform="matrix(0.05,0,0,0.05,211.69999999999996,0)" xlink:href="#bH"/></g><g id="w"><use transform="matrix(0.05,0,0,0.05,0,0)" xlink:href="#bw"/><use transform="matrix(0.05,0,0,0.05,10,0)" xlink:href="#bp"/><use transform="matrix(0.05,0,0,0.05,15.949999999999998,0)" xlink:href="#bl"/><use transform="matrix(0.05,0,0,0.05,19.9,0)" xlink:href="#bx"/><use transform="matrix(0.05,0,0,0.05,34.85,0)" xlink:href="#bq"/><use transform="matrix(0.05,0,0,0.05,44.85,0)" xlink:href="#bp"/><use transform="matrix(0.05,0,0,0.05,50.800000000000004,0)" xlink:href="#by"/><use transform="matrix(0.05,0,0,0.05,59.800000000000004,0)" xlink:href="#bz"/><use transform="matrix(0.05,0,0,0.05,72.75,0)" xlink:href="#bq"/><use transform="matrix(0.05,0,0,0.05,82.75,0)" xlink:href="#bk"/><use transform="matrix(0.05,0,0,0.05,87.75,0)" xlink:href="#bn"/><use transform="matrix(0.05,0,0,0.05,97.75,0)" xlink:href="#bA"/><use transform="matrix(0.05,0,0,0.05,107.75,0)" xlink:href="#bB"/><use transform="matrix(0.05,0,0,0.05,117.75,0)" xlink:href="#bp"/><use transform="matrix(0.05,0,0,0.05,123.7,0)" xlink:href="#by"/><use transform="matrix(0.05,0,0,0.05,132.7,0)" xlink:href="#bC"/><use transform="matrix(0.05,0,0,0.05,137.7,0)" xlink:href="#bs"/></g><g id="x"><use transform="matrix(0.05,0,0,0.05,0,0)" xlink:href="#bl"/><use transform="matrix(0.05,0,0,0.05,3.95,0)" xlink:href="#bx"/><use transform="matrix(0.05,0,0,0.05,18.900000000000002,0)" xlink:href="#bq"/><use transform="matrix(0.05,0,0,0.05,28.900000000000002,0)" xlink:href="#bA"/><use transform="matrix(0.05,0,0,0.05,38.900000000000006,0)" xlink:href="#bn"/></g><path d="M87 75C49 33 22-17 22-94c0-76 28-126 65-167h31c-38 41-64 92-64 168S80 34 118 75H87" id="bI"/><path d="M63-220v92h138v28H63V0H30v-248h175v28H63" id="bJ"/><path d="M194 0L95-120 63-95V0H30v-248h33v124l119-124h40L117-140 236 0h-42" id="bK"/><path d="M33-261c38 41 65 92 65 168S71 34 33 75H2C39 34 66-17 66-93S39-220 2-261h31" id="bL"/><g id="y"><use transform="matrix(0.05,0,0,0.05,0,0)" xlink:href="#bI"/><use transform="matrix(0.05,0,0,0.05,5.95,0)" xlink:href="#bJ"/><use transform="matrix(0.05,0,0,0.05,16.900000000000002,0)" xlink:href="#bK"/><use transform="matrix(0.05,0,0,0.05,28.900000000000002,0)" xlink:href="#bL"/></g><g id="z"><use transform="matrix(0.05,0,0,0.05,0,0)" xlink:href="#bq"/><use transform="matrix(0.05,0,0,0.05,10,0)" xlink:href="#bs"/><use transform="matrix(0.05,0,0,0.05,20,0)" xlink:href="#bs"/><use transform="matrix(0.05,0,0,0.05,30,0)" xlink:href="#bl"/><use transform="matrix(0.05,0,0,0.05,33.95,0)" xlink:href="#bk"/><use transform="matrix(0.05,0,0,0.05,38.95,0)" xlink:href="#bl"/><use transform="matrix(0.05,0,0,0.05,42.900000000000006,0)" xlink:href="#bB"/><use transform="matrix(0.05,0,0,0.05,52.900000000000006,0)" xlink:href="#br"/><use transform="matrix(0.05,0,0,0.05,62.900000000000006,0)" xlink:href="#bq"/><use transform="matrix(0.05,0,0,0.05,72.9,0)" xlink:href="#bm"/><use transform="matrix(0.05,0,0,0.05,76.85000000000001,0)" xlink:href="#bl"/><use transform="matrix(0.05,0,0,0.05,80.80000000000001,0)" xlink:href="#bx"/><use transform="matrix(0.05,0,0,0.05,95.75000000000001,0)" xlink:href="#bq"/><use transform="matrix(0.05,0,0,0.05,105.75,0)" xlink:href="#bA"/><use transform="matrix(0.05,0,0,0.05,115.75,0)" xlink:href="#bn"/><use transform="matrix(0.05,0,0,0.05,125.75,0)" xlink:href="#bH"/></g><path d="M108 0H70L1-190h34L89-25l56-165h34" id="bM"/><path d="M99-251c64 0 84 50 84 122C183-37 130 33 47-8c-14-7-20-23-25-40l30-5c6 39 69 39 84 7 9-19 16-44 16-74-10 22-31 35-62 35-49 0-73-33-73-83 0-54 28-83 82-83zm-1 141c31-1 51-18 51-49 0-36-14-67-51-67-34 0-49 23-49 58 0 34 15 58 49 58" id="bN"/><g id="A"><use transform="matrix(0.05,0,0,0.05,0,0)" xlink:href="#bM"/><use transform="matrix(0.05,0,0,0.05,9,0)" xlink:href="#bq"/><use transform="matrix(0.05,0,0,0.05,19,0)" xlink:href="#bp"/><use transform="matrix(0.05,0,0,0.05,24.95,0)" xlink:href="#bG"/><use transform="matrix(0.05,0,0,0.05,33.95,0)" xlink:href="#bE"/><use transform="matrix(0.05,0,0,0.05,43.95,0)" xlink:href="#bq"/><use transform="matrix(0.05,0,0,0.05,53.95,0)" xlink:href="#bp"/><use transform="matrix(0.05,0,0,0.05,59.900000000000006,0)" xlink:href="#bI"/><use transform="matrix(0.05,0,0,0.05,65.85000000000001,0)" xlink:href="#bN"/><use transform="matrix(0.05,0,0,0.05,75.85000000000001,0)" xlink:href="#bN"/><use transform="matrix(0.05,0,0,0.05,85.85000000000001,0)" xlink:href="#bN"/><use transform="matrix(0.05,0,0,0.05,95.85000000000001,0)" xlink:href="#bN"/><use transform="matrix(0.05,0,0,0.05,105.85000000000001,0)" xlink:href="#bN"/><use transform="matrix(0.05,0,0,0.05,115.85000000000001,0)" xlink:href="#bL"/></g><path d="M84 4C-5 8 30-112 23-190h32v120c0 31 7 50 39 49 72-2 45-101 50-169h31l1 190h-30c-1-10 1-25-2-33-11 22-28 36-60 37" id="bO"/><path d="M266 0h-40l-56-210L115 0H75L2-248h35L96-30l15-64 43-154h32l59 218 59-218h35" id="bP"/><path d="M232-93c-1 65-40 97-104 97C67 4 28-28 28-90v-158h33c8 89-33 224 67 224 102 0 64-133 71-224h33v155" id="bQ"/><path d="M233-177c-1 41-23 64-60 70L243 0h-38l-65-103H63V0H30v-248c88 3 205-21 203 71zM63-129c60-2 137 13 137-47 0-61-80-42-137-45v92" id="bR"/><g id="B"><use transform="matrix(0.05,0,0,0.05,0,0)" xlink:href="#bw"/><use transform="matrix(0.05,0,0,0.05,10,0)" xlink:href="#bp"/><use transform="matrix(0.05,0,0,0.05,15.949999999999998,0)" xlink:href="#bB"/><use transform="matrix(0.05,0,0,0.05,25.950000000000003,0)" xlink:href="#bs"/><use transform="matrix(0.05,0,0,0.05,35.95,0)" xlink:href="#bO"/><use transform="matrix(0.05,0,0,0.05,45.95,0)" xlink:href="#bG"/><use transform="matrix(0.05,0,0,0.05,54.95,0)" xlink:href="#bk"/><use transform="matrix(0.05,0,0,0.05,59.95,0)" xlink:href="#bP"/><use transform="matrix(0.05,0,0,0.05,76.55,0)" xlink:href="#bn"/><use transform="matrix(0.05,0,0,0.05,86.55,0)" xlink:href="#bo"/><use transform="matrix(0.05,0,0,0.05,96.55,0)" xlink:href="#bQ"/><use transform="matrix(0.05,0,0,0.05,109.5,0)" xlink:href="#bR"/><use transform="matrix(0.05,0,0,0.05,122.45,0)" xlink:href="#bm"/></g><g id="C"><use transform="matrix(0.05,0,0,0.05,0,0)" xlink:href="#bq"/><use transform="matrix(0.05,0,0,0.05,10,0)" xlink:href="#bH"/><use transform="matrix(0.05,0,0,0.05,19,0)" xlink:href="#bw"/><use transform="matrix(0.05,0,0,0.05,29,0)" xlink:href="#bn"/><use transform="matrix(0.05,0,0,0.05,39,0)" xlink:href="#bG"/><use transform="matrix(0.05,0,0,0.05,48,0)" xlink:href="#bk"/></g><g id="D"><use transform="matrix(0.05,0,0,0.05,0,0)" xlink:href="#bM"/><use transform="matrix(0.05,0,0,0.05,9,0)" xlink:href="#bn"/><use transform="matrix(0.05,0,0,0.05,19,0)" xlink:href="#bp"/><use transform="matrix(0.05,0,0,0.05,24.95,0)" xlink:href="#bH"/><use transform="matrix(0.05,0,0,0.05,33.95,0)" xlink:href="#bl"/><use transform="matrix(0.05,0,0,0.05,37.900000000000006,0)" xlink:href="#bB"/><use transform="matrix(0.05,0,0,0.05,47.900000000000006,0)" xlink:href="#br"/></g><g id="E"><use transform="matrix(0.05,0,0,0.05,0,0)" xlink:href="#bl"/><use transform="matrix(0.05,0,0,0.05,3.95,0)" xlink:href="#br"/><use transform="matrix(0.05,0,0,0.05,13.949999999999998,0)" xlink:href="#bk"/></g><path fill="#333" d="M33 0v-248h34V0H33" id="bS"/><path fill="#333" d="M210-169c-67 3-38 105-44 169h-31v-121c0-29-5-50-35-48C34-165 62-65 56 0H25l-1-190h30c1 10-1 24 2 32 10-44 99-50 107 0 11-21 27-35 58-36 85-2 47 119 55 194h-31v-121c0-29-5-49-35-48" id="bT"/><path fill="#333" d="M177-190C167-65 218 103 67 71c-23-6-38-20-44-43l32-5c15 47 100 32 89-28v-30C133-14 115 1 83 1 29 1 15-40 15-95c0-56 16-97 71-98 29-1 48 16 59 35 1-10 0-23 2-32h30zM94-22c36 0 50-32 50-73 0-42-14-75-50-75-39 0-46 34-46 75s6 73 46 73" id="bU"/><g id="F"><use transform="matrix(0.05,0,0,0.05,0,0)" xlink:href="#bS"/><use transform="matrix(0.05,0,0,0.05,5,0)" xlink:href="#bT"/><use transform="matrix(0.05,0,0,0.05,19.950000000000003,0)" xlink:href="#bb"/><use transform="matrix(0.05,0,0,0.05,29.950000000000003,0)" xlink:href="#bU"/><use transform="matrix(0.05,0,0,0.05,39.95,0)" xlink:href="#aU"/></g><path fill="#333" d="M24 0v-261h32V0H24" id="bV"/><g id="G"><use transform="matrix(0.05,0,0,0.05,0,0)" xlink:href="#aW"/><use transform="matrix(0.05,0,0,0.05,3.95,0)" xlink:href="#bT"/><use transform="matrix(0.05,0,0,0.05,18.900000000000002,0)" xlink:href="#bb"/><use transform="matrix(0.05,0,0,0.05,28.900000000000002,0)" xlink:href="#bU"/><use transform="matrix(0.05,0,0,0.05,38.900000000000006,0)" xlink:href="#aU"/><use transform="matrix(0.05,0,0,0.05,48.900000000000006,0)" xlink:href="#aR"/><use transform="matrix(0.05,0,0,0.05,58.900000000000006,0)" xlink:href="#aO"/><use transform="matrix(0.05,0,0,0.05,64.85000000000001,0)" xlink:href="#bV"/></g><g id="H"><use transform="matrix(0.05,0,0,0.05,0,0)" xlink:href="#aX"/><use transform="matrix(0.05,0,0,0.05,5.95,0)" xlink:href="#aN"/><use transform="matrix(0.05,0,0,0.05,17.95,0)" xlink:href="#aY"/><use transform="matrix(0.05,0,0,0.05,29.950000000000003,0)" xlink:href="#aZ"/></g><g id="I"><use transform="matrix(0.05,0,0,0.05,0,0)" xlink:href="#ba"/><use transform="matrix(0.05,0,0,0.05,9,0)" xlink:href="#bb"/><use transform="matrix(0.05,0,0,0.05,19,0)" xlink:href="#aO"/><use transform="matrix(0.05,0,0,0.05,24.95,0)" xlink:href="#aS"/><use transform="matrix(0.05,0,0,0.05,33.95,0)" xlink:href="#bc"/><use transform="matrix(0.05,0,0,0.05,43.95,0)" xlink:href="#bb"/><use transform="matrix(0.05,0,0,0.05,53.95,0)" xlink:href="#aO"/><use transform="matrix(0.05,0,0,0.05,59.900000000000006,0)" xlink:href="#aX"/><use transform="matrix(0.05,0,0,0.05,65.85000000000001,0)" xlink:href="#bv"/><use transform="matrix(0.05,0,0,0.05,75.85000000000001,0)" xlink:href="#bv"/><use transform="matrix(0.05,0,0,0.05,85.85000000000001,0)" xlink:href="#bv"/><use transform="matrix(0.05,0,0,0.05,95.85000000000001,0)" xlink:href="#bv"/><use transform="matrix(0.05,0,0,0.05,105.85000000000001,0)" xlink:href="#aZ"/></g><g id="J"><use transform="matrix(0.05,0,0,0.05,0,0)" xlink:href="#bc"/><use transform="matrix(0.05,0,0,0.05,10,0)" xlink:href="#aU"/><use transform="matrix(0.05,0,0,0.05,20,0)" xlink:href="#aW"/><use transform="matrix(0.05,0,0,0.05,23.95,0)" xlink:href="#bU"/><use transform="matrix(0.05,0,0,0.05,33.95,0)" xlink:href="#bc"/><use transform="matrix(0.05,0,0,0.05,43.95,0)" xlink:href="#aT"/></g><g id="K"><use transform="matrix(0.05,0,0,0.05,0,0)" xlink:href="#aW"/><use transform="matrix(0.05,0,0,0.05,3.95,0)" xlink:href="#bu"/><use transform="matrix(0.05,0,0,0.05,13.949999999999998,0)" xlink:href="#aT"/></g><path d="M206 0h-36l-40-164L89 0H53L-1-190h32L70-26l43-164h34l41 164 42-164h31" id="bW"/><g id="L"><use transform="matrix(0.05,0,0,0.05,0,0)" xlink:href="#bW"/><use transform="matrix(0.05,0,0,0.05,12.950000000000001,0)" xlink:href="#bl"/><use transform="matrix(0.05,0,0,0.05,16.900000000000002,0)" xlink:href="#bs"/><use transform="matrix(0.05,0,0,0.05,26.900000000000002,0)" xlink:href="#bk"/><use transform="matrix(0.05,0,0,0.05,31.900000000000002,0)" xlink:href="#bE"/></g><g id="M"><use transform="matrix(0.05,0,0,0.05,0,0)" xlink:href="#bl"/><use transform="matrix(0.05,0,0,0.05,3.95,0)" xlink:href="#br"/><use transform="matrix(0.05,0,0,0.05,13.949999999999998,0)" xlink:href="#bk"/></g><path fill="#333" d="M185-189c-5-48-123-54-124 2 14 75 158 14 163 119 3 78-121 87-175 55-17-10-28-26-33-46l33-7c5 56 141 63 141-1 0-78-155-14-162-118-5-82 145-84 179-34 5 7 8 16 11 25" id="bX"/><path fill="#333" d="M179-190L93 31C79 59 56 82 12 73V49c39 6 53-20 64-50L1-190h34L92-34l54-156h33" id="bY"/><g id="N"><use transform="matrix(0.05,0,0,0.05,0,0)" xlink:href="#aN"/><use transform="matrix(0.05,0,0,0.05,12,0)" xlink:href="#aO"/><use transform="matrix(0.05,0,0,0.05,17.95,0)" xlink:href="#aP"/><use transform="matrix(0.05,0,0,0.05,27.950000000000003,0)" xlink:href="#aQ"/><use transform="matrix(0.05,0,0,0.05,37.95,0)" xlink:href="#aR"/><use transform="matrix(0.05,0,0,0.05,47.95,0)" xlink:href="#aS"/><use transform="matrix(0.05,0,0,0.05,56.95,0)" xlink:href="#aT"/><use transform="matrix(0.05,0,0,0.05,61.95,0)" xlink:href="#bX"/><use transform="matrix(0.05,0,0,0.05,73.95,0)" xlink:href="#aR"/><use transform="matrix(0.05,0,0,0.05,83.95,0)" xlink:href="#bT"/><use transform="matrix(0.05,0,0,0.05,98.9,0)" xlink:href="#bT"/><use transform="matrix(0.05,0,0,0.05,113.85000000000001,0)" xlink:href="#bb"/><use transform="matrix(0.05,0,0,0.05,123.85000000000001,0)" xlink:href="#aO"/><use transform="matrix(0.05,0,0,0.05,129.8,0)" xlink:href="#bY"/></g><path fill="#333" d="M197 0v-115H63V0H30v-248h33v105h134v-105h34V0h-34" id="bZ"/><path fill="#333" d="M101-234c-31-9-42 10-38 44h38v23H63V0H32v-167H5v-23h27c-7-52 17-82 69-68v24" id="ca"/><g id="O"><use transform="matrix(0.05,0,0,0.05,0,0)" xlink:href="#aV"/><use transform="matrix(0.05,0,0,0.05,10,0)" xlink:href="#aO"/><use transform="matrix(0.05,0,0,0.05,15.949999999999998,0)" xlink:href="#aP"/><use transform="matrix(0.05,0,0,0.05,25.950000000000003,0)" xlink:href="#aQ"/><use transform="matrix(0.05,0,0,0.05,35.95,0)" xlink:href="#aR"/><use transform="matrix(0.05,0,0,0.05,45.95,0)" xlink:href="#aS"/><use transform="matrix(0.05,0,0,0.05,54.95,0)" xlink:href="#aT"/><use transform="matrix(0.05,0,0,0.05,59.95,0)" xlink:href="#bZ"/><use transform="matrix(0.05,0,0,0.05,72.9,0)" xlink:href="#aO"/><use transform="matrix(0.05,0,0,0.05,78.85000000000001,0)" xlink:href="#aU"/><use transform="matrix(0.05,0,0,0.05,88.85000000000001,0)" xlink:href="#ca"/></g><g id="P"><use transform="matrix(0.048148148148148155,0,0,0.048148148148148155,0,0)" xlink:href="#bM"/><use transform="matrix(0.048148148148148155,0,0,0.048148148148148155,8.666666666666668,0)" xlink:href="#bq"/><use transform="matrix(0.048148148148148155,0,0,0.048148148148148155,18.296296296296298,0)" xlink:href="#bp"/><use transform="matrix(0.048148148148148155,0,0,0.048148148148148155,24.02592592592593,0)" xlink:href="#bG"/><use transform="matrix(0.048148148148148155,0,0,0.048148148148148155,32.6925925925926,0)" xlink:href="#bE"/><use transform="matrix(0.048148148148148155,0,0,0.048148148148148155,42.32222222222223,0)" xlink:href="#bq"/><use transform="matrix(0.048148148148148155,0,0,0.048148148148148155,51.951851851851856,0)" xlink:href="#bp"/><use transform="matrix(0.048148148148148155,0,0,0.048148148148148155,57.68148148148149,0)" xlink:href="#bI"/><use transform="matrix(0.048148148148148155,0,0,0.048148148148148155,63.41111111111112,0)" xlink:href="#bN"/><use transform="matrix(0.048148148148148155,0,0,0.048148148148148155,73.04074074074074,0)" xlink:href="#bN"/><use transform="matrix(0.048148148148148155,0,0,0.048148148148148155,82.67037037037038,0)" xlink:href="#bN"/><use transform="matrix(0.048148148148148155,0,0,0.048148148148148155,92.30000000000001,0)" xlink:href="#bN"/><use transform="matrix(0.048148148148148155,0,0,0.048148148148148155,101.92962962962964,0)" xlink:href="#bN"/><use transform="matrix(0.048148148148148155,0,0,0.048148148148148155,111.55925925925928,0)" xlink:href="#bL"/></g><path d="M190 0L58-211 59 0H30v-248h39L202-35l-2-213h31V0h-41" id="cb"/><path d="M140-251c81 0 123 46 123 126C263-46 219 4 140 4 59 4 17-45 17-125s42-126 123-126zm0 227c63 0 89-41 89-101s-29-99-89-99c-61 0-89 39-89 99S79-25 140-24" id="cc"/><path d="M127-220V0H93v-220H8v-28h204v28h-85" id="cd"/><g id="Q"><use transform="matrix(0.048148148148148155,0,0,0.048148148148148155,0,0)" xlink:href="#cb"/><use transform="matrix(0.048148148148148155,0,0,0.048148148148148155,12.470370370370372,0)" xlink:href="#cc"/><use transform="matrix(0.048148148148148155,0,0,0.048148148148148155,25.951851851851856,0)" xlink:href="#cd"/></g><path d="M30 0v-248h33v221h125V0H30" id="ce"/><g id="R"><use transform="matrix(0.048148148148148155,0,0,0.048148148148148155,0,0)" xlink:href="#cb"/><use transform="matrix(0.048148148148148155,0,0,0.048148148148148155,12.470370370370372,0)" xlink:href="#bQ"/><use transform="matrix(0.048148148148148155,0,0,0.048148148148148155,24.940740740740743,0)" xlink:href="#ce"/><use transform="matrix(0.048148148148148155,0,0,0.048148148148148155,34.57037037037038,0)" xlink:href="#ce"/></g><g id="S"><use transform="matrix(0.05,0,0,0.05,0,0)" xlink:href="#aU"/><use transform="matrix(0.05,0,0,0.05,10,0)" xlink:href="#bb"/><use transform="matrix(0.05,0,0,0.05,20,0)" xlink:href="#bu"/></g><g id="T"><use transform="matrix(0.05,0,0,0.05,0,0)" xlink:href="#bn"/><use transform="matrix(0.05,0,0,0.05,10,0)" xlink:href="#bw"/><use transform="matrix(0.05,0,0,0.05,20,0)" xlink:href="#bl"/><use transform="matrix(0.05,0,0,0.05,23.95,0)" xlink:href="#bs"/></g><g id="U"><use transform="matrix(0.05,0,0,0.05,0,0)" xlink:href="#bA"/><use transform="matrix(0.05,0,0,0.05,10,0)" xlink:href="#bk"/><use transform="matrix(0.05,0,0,0.05,15,0)" xlink:href="#bl"/><use transform="matrix(0.05,0,0,0.05,18.95,0)" xlink:href="#br"/></g><g id="V"><use transform="matrix(0.05,0,0,0.05,0,0)" xlink:href="#bl"/><use transform="matrix(0.05,0,0,0.05,3.95,0)" xlink:href="#bH"/><use transform="matrix(0.05,0,0,0.05,12.949999999999998,0)" xlink:href="#bo"/><use transform="matrix(0.05,0,0,0.05,22.95,0)" xlink:href="#br"/></g><g id="W"><use transform="matrix(0.05,0,0,0.05,0,0)" xlink:href="#bx"/><use transform="matrix(0.05,0,0,0.05,14.950000000000001,0)" xlink:href="#bw"/><use transform="matrix(0.05,0,0,0.05,24.950000000000003,0)" xlink:href="#br"/></g><path fill="#333" d="M205 0l-28-72H64L36 0H1l101-248h38L239 0h-34zm-38-99l-47-123c-12 45-31 82-46 123h93" id="cf"/><g id="X"><use transform="matrix(0.05,0,0,0.05,0,0)" xlink:href="#cf"/><use transform="matrix(0.05,0,0,0.05,12,0)" xlink:href="#bt"/><use transform="matrix(0.05,0,0,0.05,21,0)" xlink:href="#aV"/><use transform="matrix(0.05,0,0,0.05,31,0)" xlink:href="#aU"/><use transform="matrix(0.05,0,0,0.05,41,0)" xlink:href="#aS"/><use transform="matrix(0.05,0,0,0.05,50,0)" xlink:href="#aT"/></g><path fill="#333" d="M9 0v-24l116-142H16v-24h144v24L44-24h123V0H9" id="cg"/><g id="Y"><use transform="matrix(0.05,0,0,0.05,0,0)" xlink:href="#bV"/><use transform="matrix(0.05,0,0,0.05,3.95,0)" xlink:href="#aP"/><use transform="matrix(0.05,0,0,0.05,13.949999999999998,0)" xlink:href="#aS"/><use transform="matrix(0.05,0,0,0.05,22.95,0)" xlink:href="#bb"/><use transform="matrix(0.05,0,0,0.05,32.95,0)" xlink:href="#bV"/><use transform="matrix(0.05,0,0,0.05,36.900000000000006,0)" xlink:href="#aW"/><use transform="matrix(0.05,0,0,0.05,40.85000000000001,0)" xlink:href="#cg"/><use transform="matrix(0.05,0,0,0.05,49.85000000000001,0)" xlink:href="#aU"/><use transform="matrix(0.05,0,0,0.05,59.85,0)" xlink:href="#aQ"/><use transform="matrix(0.05,0,0,0.05,69.85000000000001,0)" xlink:href="#bf"/><use transform="matrix(0.05,0,0,0.05,82.80000000000001,0)" xlink:href="#bb"/><use transform="matrix(0.05,0,0,0.05,92.80000000000001,0)" xlink:href="#bT"/><use transform="matrix(0.05,0,0,0.05,107.75,0)" xlink:href="#aU"/></g><path fill="#333" d="M137 0h-34L2-248h35l83 218 83-218h36" id="ch"/><g id="Z"><use transform="matrix(0.05,0,0,0.05,0,0)" xlink:href="#bV"/><use transform="matrix(0.05,0,0,0.05,3.95,0)" xlink:href="#aP"/><use transform="matrix(0.05,0,0,0.05,13.949999999999998,0)" xlink:href="#aS"/><use transform="matrix(0.05,0,0,0.05,22.95,0)" xlink:href="#bb"/><use transform="matrix(0.05,0,0,0.05,32.95,0)" xlink:href="#bV"/><use transform="matrix(0.05,0,0,0.05,36.900000000000006,0)" xlink:href="#aW"/><use transform="matrix(0.05,0,0,0.05,40.85000000000001,0)" xlink:href="#cg"/><use transform="matrix(0.05,0,0,0.05,49.85000000000001,0)" xlink:href="#aU"/><use transform="matrix(0.05,0,0,0.05,59.85,0)" xlink:href="#aQ"/><use transform="matrix(0.05,0,0,0.05,69.85000000000001,0)" xlink:href="#ch"/><use transform="matrix(0.05,0,0,0.05,80.50000000000001,0)" xlink:href="#bb"/><use transform="matrix(0.05,0,0,0.05,90.50000000000001,0)" xlink:href="#bV"/><use transform="matrix(0.05,0,0,0.05,94.45000000000002,0)" xlink:href="#aR"/><use transform="matrix(0.05,0,0,0.05,104.45,0)" xlink:href="#aU"/><use transform="matrix(0.05,0,0,0.05,114.45,0)" xlink:href="#bt"/></g><path fill="#333" d="M212-179c-10-28-35-45-73-45-59 0-87 40-87 99 0 60 29 101 89 101 43 0 62-24 78-52l27 14C228-24 195 4 139 4 59 4 22-46 18-125c-6-104 99-153 187-111 19 9 31 26 39 46" id="ci"/><g id="aa"><use transform="matrix(0.05,0,0,0.05,0,0)" xlink:href="#ci"/><use transform="matrix(0.05,0,0,0.05,12.950000000000001,0)" xlink:href="#bb"/><use transform="matrix(0.05,0,0,0.05,22.950000000000003,0)" xlink:href="#aT"/><use transform="matrix(0.05,0,0,0.05,27.950000000000003,0)" xlink:href="#aU"/><use transform="matrix(0.05,0,0,0.05,37.95,0)" xlink:href="#bU"/><use transform="matrix(0.05,0,0,0.05,47.95,0)" xlink:href="#aP"/><use transform="matrix(0.05,0,0,0.05,57.95,0)" xlink:href="#aO"/><use transform="matrix(0.05,0,0,0.05,63.900000000000006,0)" xlink:href="#bY"/></g><path fill="#333" d="M30-248c118-7 216 8 213 122C240-48 200 0 122 0H30v-248zM63-27c89 8 146-16 146-99s-60-101-146-95v194" id="cj"/><g id="ab"><use transform="matrix(0.05,0,0,0.05,0,0)" xlink:href="#ci"/><use transform="matrix(0.05,0,0,0.05,12.950000000000001,0)" xlink:href="#bb"/><use transform="matrix(0.05,0,0,0.05,22.950000000000003,0)" xlink:href="#aT"/><use transform="matrix(0.05,0,0,0.05,27.950000000000003,0)" xlink:href="#aU"/><use transform="matrix(0.05,0,0,0.05,37.95,0)" xlink:href="#bU"/><use transform="matrix(0.05,0,0,0.05,47.95,0)" xlink:href="#aP"/><use transform="matrix(0.05,0,0,0.05,57.95,0)" xlink:href="#aO"/><use transform="matrix(0.05,0,0,0.05,63.900000000000006,0)" xlink:href="#bY"/><use transform="matrix(0.05,0,0,0.05,72.9,0)" xlink:href="#bS"/><use transform="matrix(0.05,0,0,0.05,77.9,0)" xlink:href="#cj"/></g><path d="M101-251c82-7 93 87 43 132L82-64C71-53 59-42 53-27h129V0H18c2-99 128-94 128-182 0-28-16-43-45-43s-46 15-49 41l-32-3c6-41 34-60 81-64" id="ck"/><path d="M54-142c48-35 137-8 131 61C196 18 31 33 14-55l32-4c7 23 22 37 52 37 35-1 51-22 54-58 4-55-73-65-99-34H22l8-134h141v27H59" id="cl"/><g id="ac"><use transform="matrix(0.048148148148148155,0,0,0.048148148148148155,0,0)" xlink:href="#bM"/><use transform="matrix(0.048148148148148155,0,0,0.048148148148148155,8.666666666666668,0)" xlink:href="#bq"/><use transform="matrix(0.048148148148148155,0,0,0.048148148148148155,18.296296296296298,0)" xlink:href="#bp"/><use transform="matrix(0.048148148148148155,0,0,0.048148148148148155,24.02592592592593,0)" xlink:href="#bG"/><use transform="matrix(0.048148148148148155,0,0,0.048148148148148155,32.6925925925926,0)" xlink:href="#bE"/><use transform="matrix(0.048148148148148155,0,0,0.048148148148148155,42.32222222222223,0)" xlink:href="#bq"/><use transform="matrix(0.048148148148148155,0,0,0.048148148148148155,51.951851851851856,0)" xlink:href="#bp"/><use transform="matrix(0.048148148148148155,0,0,0.048148148148148155,57.68148148148149,0)" xlink:href="#bI"/><use transform="matrix(0.048148148148148155,0,0,0.048148148148148155,63.41111111111112,0)" xlink:href="#ck"/><use transform="matrix(0.048148148148148155,0,0,0.048148148148148155,73.04074074074074,0)" xlink:href="#cl"/><use transform="matrix(0.048148148148148155,0,0,0.048148148148148155,82.67037037037038,0)" xlink:href="#cl"/><use transform="matrix(0.048148148148148155,0,0,0.048148148148148155,92.30000000000001,0)" xlink:href="#bL"/></g><g id="ad"><use transform="matrix(0.05,0,0,0.05,0,0)" xlink:href="#aS"/><use transform="matrix(0.05,0,0,0.05,9,0)" xlink:href="#bb"/><use transform="matrix(0.05,0,0,0.05,19,0)" xlink:href="#aT"/><use transform="matrix(0.05,0,0,0.05,24,0)" xlink:href="#aU"/><use transform="matrix(0.05,0,0,0.05,34,0)" xlink:href="#bU"/><use transform="matrix(0.05,0,0,0.05,44,0)" xlink:href="#aP"/><use transform="matrix(0.05,0,0,0.05,54,0)" xlink:href="#aO"/><use transform="matrix(0.05,0,0,0.05,59.95,0)" xlink:href="#bY"/><use transform="matrix(0.05,0,0,0.05,68.95,0)" xlink:href="#cf"/><use transform="matrix(0.05,0,0,0.05,80.95,0)" xlink:href="#bt"/><use transform="matrix(0.05,0,0,0.05,89.95,0)" xlink:href="#aV"/><use transform="matrix(0.05,0,0,0.05,99.95,0)" xlink:href="#aU"/><use transform="matrix(0.05,0,0,0.05,109.95,0)" xlink:href="#aS"/><use transform="matrix(0.05,0,0,0.05,118.95,0)" xlink:href="#aT"/></g><path fill="#333" d="M63-220v92h138v28H63V0H30v-248h175v28H63" id="cm"/><g id="ae"><use transform="matrix(0.05,0,0,0.05,0,0)" xlink:href="#aX"/><use transform="matrix(0.05,0,0,0.05,5.95,0)" xlink:href="#cm"/><use transform="matrix(0.05,0,0,0.05,16.900000000000002,0)" xlink:href="#aY"/><use transform="matrix(0.05,0,0,0.05,28.900000000000002,0)" xlink:href="#aZ"/></g></defs></g></svg>