<?xml version="1.0" encoding="UTF-8" standalone="no"?><svg xmlns="http://www.w3.org/2000/svg" xmlns:xlink="http://www.w3.org/1999/xlink" contentScriptType="application/ecmascript" contentStyleType="text/css" height="641px" preserveAspectRatio="none" style="width:1119px;height:641px;background:#FFFFFF;" version="1.1" viewBox="0 0 1119 641" width="1119px" zoomAndPan="magnify"><defs><filter height="300%" id="f1stvum4ah9mqr" width="300%" x="-1" y="-1"><feGaussianBlur result="blurOut" stdDeviation="2.0"/><feColorMatrix in="blurOut" result="blurOut2" type="matrix" values="0 0 0 0 0 0 0 0 0 0 0 0 0 0 0 0 0 0 .4 0"/><feOffset dx="4.0" dy="4.0" in="blurOut2" result="blurOut3"/><feBlend in="SourceGraphic" in2="blurOut3" mode="normal"/></filter></defs><g><!--MD5=[2770d511fa22a6a61bb54ccdb4cbf396]
class Amount--><rect codeLine="8" fill="#FEFECE" filter="url(#f1stvum4ah9mqr)" height="65.6094" id="Amount" style="stroke:#A80036;stroke-width:1.5;" width="130" x="222.5" y="562"/><ellipse cx="261.35" cy="578" fill="#ADD1B2" rx="11" ry="11" style="stroke:#A80036;stroke-width:1.0;"/><path d="M263.6938,573.6719 C262.7563,573.2344 262.1625,573.0938 261.2875,573.0938 C258.6625,573.0938 256.6625,575.1719 256.6625,577.8906 L256.6625,579.0156 C256.6625,581.5938 258.7719,583.4844 261.6625,583.4844 C262.8813,583.4844 264.0375,583.1875 264.7875,582.6406 C265.3656,582.2344 265.6938,581.7813 265.6938,581.3906 C265.6938,580.9375 265.3031,580.5469 264.8344,580.5469 C264.6156,580.5469 264.4125,580.625 264.225,580.8125 C263.7719,581.2969 263.7719,581.2969 263.5844,581.3906 C263.1625,581.6563 262.475,581.7813 261.7094,581.7813 C259.6625,581.7813 258.3656,580.6875 258.3656,578.9844 L258.3656,577.8906 C258.3656,576.1094 259.6156,574.7969 261.35,574.7969 C261.9281,574.7969 262.5375,574.9531 263.0063,575.2031 C263.4906,575.4844 263.6625,575.7031 263.7563,576.1094 C263.8188,576.5156 263.85,576.6406 263.9906,576.7656 C264.1313,576.9063 264.3656,577.0156 264.5844,577.0156 C264.85,577.0156 265.1156,576.875 265.2875,576.6563 C265.3969,576.5 265.4281,576.3125 265.4281,575.8906 L265.4281,574.4688 C265.4281,574.0313 265.4125,573.9063 265.3188,573.75 C265.1625,573.4844 264.8813,573.3438 264.5844,573.3438 C264.2875,573.3438 264.0844,573.4375 263.8656,573.75 L263.6938,573.6719 Z " fill="#000000"/><text fill="#000000" font-family="sans-serif" font-size="12" lengthAdjust="spacing" textLength="45" x="280.65" y="582.1543">Amount</text><line style="stroke:#A80036;stroke-width:1.5;" x1="223.5" x2="351.5" y1="594" y2="594"/><text fill="#000000" font-family="sans-serif" font-size="11" lengthAdjust="spacing" textLength="118" x="228.5" y="608.2104">currency : string {O}</text><text fill="#000000" font-family="sans-serif" font-size="11" lengthAdjust="spacing" textLength="101" x="228.5" y="621.0151">value : string {O}</text><!--MD5=[c89de6697dc6d01dc60be682576a34d4]
class Aspect--><rect codeLine="13" fill="#FEFECE" filter="url(#f1stvum4ah9mqr)" height="65.6094" id="Aspect" style="stroke:#A80036;stroke-width:1.5;" width="127" x="448" y="562"/><ellipse cx="486.85" cy="578" fill="#ADD1B2" rx="11" ry="11" style="stroke:#A80036;stroke-width:1.0;"/><path d="M489.1938,573.6719 C488.2563,573.2344 487.6625,573.0938 486.7875,573.0938 C484.1625,573.0938 482.1625,575.1719 482.1625,577.8906 L482.1625,579.0156 C482.1625,581.5938 484.2719,583.4844 487.1625,583.4844 C488.3813,583.4844 489.5375,583.1875 490.2875,582.6406 C490.8656,582.2344 491.1938,581.7813 491.1938,581.3906 C491.1938,580.9375 490.8031,580.5469 490.3344,580.5469 C490.1156,580.5469 489.9125,580.625 489.725,580.8125 C489.2719,581.2969 489.2719,581.2969 489.0844,581.3906 C488.6625,581.6563 487.975,581.7813 487.2094,581.7813 C485.1625,581.7813 483.8656,580.6875 483.8656,578.9844 L483.8656,577.8906 C483.8656,576.1094 485.1156,574.7969 486.85,574.7969 C487.4281,574.7969 488.0375,574.9531 488.5063,575.2031 C488.9906,575.4844 489.1625,575.7031 489.2563,576.1094 C489.3188,576.5156 489.35,576.6406 489.4906,576.7656 C489.6313,576.9063 489.8656,577.0156 490.0844,577.0156 C490.35,577.0156 490.6156,576.875 490.7875,576.6563 C490.8969,576.5 490.9281,576.3125 490.9281,575.8906 L490.9281,574.4688 C490.9281,574.0313 490.9125,573.9063 490.8188,573.75 C490.6625,573.4844 490.3813,573.3438 490.0844,573.3438 C489.7875,573.3438 489.5844,573.4375 489.3656,573.75 L489.1938,573.6719 Z " fill="#000000"/><text fill="#000000" font-family="sans-serif" font-size="12" lengthAdjust="spacing" textLength="42" x="506.15" y="582.1543">Aspect</text><line style="stroke:#A80036;stroke-width:1.5;" x1="449" x2="574" y1="594" y2="594"/><text fill="#000000" font-family="sans-serif" font-size="11" lengthAdjust="spacing" textLength="102" x="454" y="608.2104">name : string {O}</text><text fill="#000000" font-family="sans-serif" font-size="11" lengthAdjust="spacing" textLength="115" x="454" y="621.0151">values : string[] {O}</text><!--MD5=[a5c675e0730bc9b21b49403404798d2b]
class Charity--><rect codeLine="18" fill="#FEFECE" filter="url(#f1stvum4ah9mqr)" height="65.6094" id="Charity" style="stroke:#A80036;stroke-width:1.5;" width="195" x="7" y="400"/><ellipse cx="79.75" cy="416" fill="#ADD1B2" rx="11" ry="11" style="stroke:#A80036;stroke-width:1.0;"/><path d="M82.0938,411.6719 C81.1563,411.2344 80.5625,411.0938 79.6875,411.0938 C77.0625,411.0938 75.0625,413.1719 75.0625,415.8906 L75.0625,417.0156 C75.0625,419.5938 77.1719,421.4844 80.0625,421.4844 C81.2813,421.4844 82.4375,421.1875 83.1875,420.6406 C83.7656,420.2344 84.0938,419.7813 84.0938,419.3906 C84.0938,418.9375 83.7031,418.5469 83.2344,418.5469 C83.0156,418.5469 82.8125,418.625 82.625,418.8125 C82.1719,419.2969 82.1719,419.2969 81.9844,419.3906 C81.5625,419.6563 80.875,419.7813 80.1094,419.7813 C78.0625,419.7813 76.7656,418.6875 76.7656,416.9844 L76.7656,415.8906 C76.7656,414.1094 78.0156,412.7969 79.75,412.7969 C80.3281,412.7969 80.9375,412.9531 81.4063,413.2031 C81.8906,413.4844 82.0625,413.7031 82.1563,414.1094 C82.2188,414.5156 82.25,414.6406 82.3906,414.7656 C82.5313,414.9063 82.7656,415.0156 82.9844,415.0156 C83.25,415.0156 83.5156,414.875 83.6875,414.6563 C83.7969,414.5 83.8281,414.3125 83.8281,413.8906 L83.8281,412.4688 C83.8281,412.0313 83.8125,411.9063 83.7188,411.75 C83.5625,411.4844 83.2813,411.3438 82.9844,411.3438 C82.6875,411.3438 82.4844,411.4375 82.2656,411.75 L82.0938,411.6719 Z " fill="#000000"/><text fill="#000000" font-family="sans-serif" font-size="12" lengthAdjust="spacing" textLength="41" x="100.25" y="420.1543">Charity</text><line style="stroke:#A80036;stroke-width:1.5;" x1="8" x2="201" y1="432" y2="432"/><text fill="#000000" font-family="sans-serif" font-size="11" lengthAdjust="spacing" textLength="183" x="13" y="446.2104">donationPercentage : string {O}</text><text fill="#000000" font-family="sans-serif" font-size="11" lengthAdjust="spacing" textLength="117" x="13" y="459.0151">charityId : string {O}</text><!--MD5=[b8cfd8c4119a3b0a7a46bfc5fc780f85]
class Error--><rect codeLine="23" fill="#FEFECE" filter="url(#f1stvum4ah9mqr)" height="142.4375" id="Error" style="stroke:#A80036;stroke-width:1.5;" width="160" x="945.5" y="7"/><ellipse cx="1006.25" cy="23" fill="#ADD1B2" rx="11" ry="11" style="stroke:#A80036;stroke-width:1.0;"/><path d="M1008.5938,18.6719 C1007.6563,18.2344 1007.0625,18.0938 1006.1875,18.0938 C1003.5625,18.0938 1001.5625,20.1719 1001.5625,22.8906 L1001.5625,24.0156 C1001.5625,26.5938 1003.6719,28.4844 1006.5625,28.4844 C1007.7813,28.4844 1008.9375,28.1875 1009.6875,27.6406 C1010.2656,27.2344 1010.5938,26.7813 1010.5938,26.3906 C1010.5938,25.9375 1010.2031,25.5469 1009.7344,25.5469 C1009.5156,25.5469 1009.3125,25.625 1009.125,25.8125 C1008.6719,26.2969 1008.6719,26.2969 1008.4844,26.3906 C1008.0625,26.6563 1007.375,26.7813 1006.6094,26.7813 C1004.5625,26.7813 1003.2656,25.6875 1003.2656,23.9844 L1003.2656,22.8906 C1003.2656,21.1094 1004.5156,19.7969 1006.25,19.7969 C1006.8281,19.7969 1007.4375,19.9531 1007.9063,20.2031 C1008.3906,20.4844 1008.5625,20.7031 1008.6563,21.1094 C1008.7188,21.5156 1008.75,21.6406 1008.8906,21.7656 C1009.0313,21.9063 1009.2656,22.0156 1009.4844,22.0156 C1009.75,22.0156 1010.0156,21.875 1010.1875,21.6563 C1010.2969,21.5 1010.3281,21.3125 1010.3281,20.8906 L1010.3281,19.4688 C1010.3281,19.0313 1010.3125,18.9063 1010.2188,18.75 C1010.0625,18.4844 1009.7813,18.3438 1009.4844,18.3438 C1009.1875,18.3438 1008.9844,18.4375 1008.7656,18.75 L1008.5938,18.6719 Z " fill="#000000"/><text fill="#000000" font-family="sans-serif" font-size="12" lengthAdjust="spacing" textLength="30" x="1026.75" y="27.1543">Error</text><line style="stroke:#A80036;stroke-width:1.5;" x1="946.5" x2="1104.5" y1="39" y2="39"/><text fill="#000000" font-family="sans-serif" font-size="11" lengthAdjust="spacing" textLength="119" x="951.5" y="53.2104">category : string {O}</text><text fill="#000000" font-family="sans-serif" font-size="11" lengthAdjust="spacing" textLength="111" x="951.5" y="66.0151">domain : string {O}</text><text fill="#000000" font-family="sans-serif" font-size="11" lengthAdjust="spacing" textLength="116" x="951.5" y="78.8198">errorId : integer {O}</text><text fill="#000000" font-family="sans-serif" font-size="11" lengthAdjust="spacing" textLength="140" x="951.5" y="91.6245">inputRefIds : string[] {O}</text><text fill="#000000" font-family="sans-serif" font-size="11" lengthAdjust="spacing" textLength="144" x="951.5" y="104.4292">longMessage : string {O}</text><text fill="#000000" font-family="sans-serif" font-size="11" lengthAdjust="spacing" textLength="122" x="951.5" y="117.2339">message : string {O}</text><text fill="#000000" font-family="sans-serif" font-size="11" lengthAdjust="spacing" textLength="148" x="951.5" y="130.0386">outputRefIds : string[] {O}</text><text fill="#000000" font-family="sans-serif" font-size="11" lengthAdjust="spacing" textLength="131" x="951.5" y="142.8433">subdomain : string {O}</text><!--MD5=[82632de764b61605b5ca7287c966bab1]
class ErrorParameter--><rect codeLine="34" fill="#FEFECE" filter="url(#f1stvum4ah9mqr)" height="65.6094" id="ErrorParameter" style="stroke:#A80036;stroke-width:1.5;" width="123" x="964" y="232"/><ellipse cx="979" cy="248" fill="#ADD1B2" rx="11" ry="11" style="stroke:#A80036;stroke-width:1.0;"/><path d="M981.3438,243.6719 C980.4063,243.2344 979.8125,243.0938 978.9375,243.0938 C976.3125,243.0938 974.3125,245.1719 974.3125,247.8906 L974.3125,249.0156 C974.3125,251.5938 976.4219,253.4844 979.3125,253.4844 C980.5313,253.4844 981.6875,253.1875 982.4375,252.6406 C983.0156,252.2344 983.3438,251.7813 983.3438,251.3906 C983.3438,250.9375 982.9531,250.5469 982.4844,250.5469 C982.2656,250.5469 982.0625,250.625 981.875,250.8125 C981.4219,251.2969 981.4219,251.2969 981.2344,251.3906 C980.8125,251.6563 980.125,251.7813 979.3594,251.7813 C977.3125,251.7813 976.0156,250.6875 976.0156,248.9844 L976.0156,247.8906 C976.0156,246.1094 977.2656,244.7969 979,244.7969 C979.5781,244.7969 980.1875,244.9531 980.6563,245.2031 C981.1406,245.4844 981.3125,245.7031 981.4063,246.1094 C981.4688,246.5156 981.5,246.6406 981.6406,246.7656 C981.7813,246.9063 982.0156,247.0156 982.2344,247.0156 C982.5,247.0156 982.7656,246.875 982.9375,246.6563 C983.0469,246.5 983.0781,246.3125 983.0781,245.8906 L983.0781,244.4688 C983.0781,244.0313 983.0625,243.9063 982.9688,243.75 C982.8125,243.4844 982.5313,243.3438 982.2344,243.3438 C981.9375,243.3438 981.7344,243.4375 981.5156,243.75 L981.3438,243.6719 Z " fill="#000000"/><text fill="#000000" font-family="sans-serif" font-size="12" lengthAdjust="spacing" textLength="91" x="993" y="252.1543">ErrorParameter</text><line style="stroke:#A80036;stroke-width:1.5;" x1="965" x2="1086" y1="264" y2="264"/><text fill="#000000" font-family="sans-serif" font-size="11" lengthAdjust="spacing" textLength="102" x="970" y="278.2104">name : string {O}</text><text fill="#000000" font-family="sans-serif" font-size="11" lengthAdjust="spacing" textLength="101" x="970" y="291.0151">value : string {O}</text><!--MD5=[1dcd974cb50be026b90c6d4f814a3bde]
class ItemDraft--><rect codeLine="39" fill="#FEFECE" filter="url(#f1stvum4ah9mqr)" height="78.4141" id="ItemDraft" style="stroke:#A80036;stroke-width:1.5;" width="141" x="230" y="226"/><ellipse cx="269.3" cy="242" fill="#ADD1B2" rx="11" ry="11" style="stroke:#A80036;stroke-width:1.0;"/><path d="M271.6438,237.6719 C270.7063,237.2344 270.1125,237.0938 269.2375,237.0938 C266.6125,237.0938 264.6125,239.1719 264.6125,241.8906 L264.6125,243.0156 C264.6125,245.5938 266.7219,247.4844 269.6125,247.4844 C270.8313,247.4844 271.9875,247.1875 272.7375,246.6406 C273.3156,246.2344 273.6438,245.7813 273.6438,245.3906 C273.6438,244.9375 273.2531,244.5469 272.7844,244.5469 C272.5656,244.5469 272.3625,244.625 272.175,244.8125 C271.7219,245.2969 271.7219,245.2969 271.5344,245.3906 C271.1125,245.6563 270.425,245.7813 269.6594,245.7813 C267.6125,245.7813 266.3156,244.6875 266.3156,242.9844 L266.3156,241.8906 C266.3156,240.1094 267.5656,238.7969 269.3,238.7969 C269.8781,238.7969 270.4875,238.9531 270.9563,239.2031 C271.4406,239.4844 271.6125,239.7031 271.7063,240.1094 C271.7688,240.5156 271.8,240.6406 271.9406,240.7656 C272.0813,240.9063 272.3156,241.0156 272.5344,241.0156 C272.8,241.0156 273.0656,240.875 273.2375,240.6563 C273.3469,240.5 273.3781,240.3125 273.3781,239.8906 L273.3781,238.4688 C273.3781,238.0313 273.3625,237.9063 273.2688,237.75 C273.1125,237.4844 272.8313,237.3438 272.5344,237.3438 C272.2375,237.3438 272.0344,237.4375 271.8156,237.75 L271.6438,237.6719 Z " fill="#000000"/><text fill="#000000" font-family="sans-serif" font-size="12" lengthAdjust="spacing" textLength="55" x="288.7" y="246.1543">ItemDraft</text><line style="stroke:#A80036;stroke-width:1.5;" x1="231" x2="370" y1="258" y2="258"/><text fill="#000000" font-family="sans-serif" font-size="11" lengthAdjust="spacing" textLength="129" x="236" y="272.2104">categoryId : string {O}</text><text fill="#000000" font-family="sans-serif" font-size="11" lengthAdjust="spacing" textLength="120" x="236" y="285.0151">condition : string {O}</text><text fill="#000000" font-family="sans-serif" font-size="11" lengthAdjust="spacing" textLength="106" x="236" y="297.8198">format : string {O}</text><!--MD5=[d3348ab4fd5236b2f7a6aa8e9dcc0fea]
class ItemDraftResponse--><rect codeLine="45" fill="#FEFECE" filter="url(#f1stvum4ah9mqr)" height="78.4141" id="ItemDraftResponse" style="stroke:#A80036;stroke-width:1.5;" width="178" x="406.5" y="226"/><ellipse cx="435.45" cy="242" fill="#ADD1B2" rx="11" ry="11" style="stroke:#A80036;stroke-width:1.0;"/><path d="M437.7938,237.6719 C436.8563,237.2344 436.2625,237.0938 435.3875,237.0938 C432.7625,237.0938 430.7625,239.1719 430.7625,241.8906 L430.7625,243.0156 C430.7625,245.5938 432.8719,247.4844 435.7625,247.4844 C436.9813,247.4844 438.1375,247.1875 438.8875,246.6406 C439.4656,246.2344 439.7938,245.7813 439.7938,245.3906 C439.7938,244.9375 439.4031,244.5469 438.9344,244.5469 C438.7156,244.5469 438.5125,244.625 438.325,244.8125 C437.8719,245.2969 437.8719,245.2969 437.6844,245.3906 C437.2625,245.6563 436.575,245.7813 435.8094,245.7813 C433.7625,245.7813 432.4656,244.6875 432.4656,242.9844 L432.4656,241.8906 C432.4656,240.1094 433.7156,238.7969 435.45,238.7969 C436.0281,238.7969 436.6375,238.9531 437.1063,239.2031 C437.5906,239.4844 437.7625,239.7031 437.8563,240.1094 C437.9188,240.5156 437.95,240.6406 438.0906,240.7656 C438.2313,240.9063 438.4656,241.0156 438.6844,241.0156 C438.95,241.0156 439.2156,240.875 439.3875,240.6563 C439.4969,240.5 439.5281,240.3125 439.5281,239.8906 L439.5281,238.4688 C439.5281,238.0313 439.5125,237.9063 439.4188,237.75 C439.2625,237.4844 438.9813,237.3438 438.6844,237.3438 C438.3875,237.3438 438.1844,237.4375 437.9656,237.75 L437.7938,237.6719 Z " fill="#000000"/><text fill="#000000" font-family="sans-serif" font-size="12" lengthAdjust="spacing" textLength="115" x="452.55" y="246.1543">ItemDraftResponse</text><line style="stroke:#A80036;stroke-width:1.5;" x1="407.5" x2="583.5" y1="258" y2="258"/><text fill="#000000" font-family="sans-serif" font-size="11" lengthAdjust="spacing" textLength="133" x="412.5" y="272.2104">itemDraftId : string {O}</text><text fill="#000000" font-family="sans-serif" font-size="11" lengthAdjust="spacing" textLength="166" x="412.5" y="285.0151">sellFlowNativeUri : string {O}</text><text fill="#000000" font-family="sans-serif" font-size="11" lengthAdjust="spacing" textLength="129" x="412.5" y="297.8198">sellFlowUrl : string {O}</text><!--MD5=[34c7528b16350b1b437688a1e3150776]
class PricingSummary--><rect codeLine="51" fill="#FEFECE" filter="url(#f1stvum4ah9mqr)" height="32" id="PricingSummary" style="stroke:#A80036;stroke-width:1.5;" width="127" x="237" y="417"/><ellipse cx="252" cy="433" fill="#ADD1B2" rx="11" ry="11" style="stroke:#A80036;stroke-width:1.0;"/><path d="M254.3438,428.6719 C253.4063,428.2344 252.8125,428.0938 251.9375,428.0938 C249.3125,428.0938 247.3125,430.1719 247.3125,432.8906 L247.3125,434.0156 C247.3125,436.5938 249.4219,438.4844 252.3125,438.4844 C253.5313,438.4844 254.6875,438.1875 255.4375,437.6406 C256.0156,437.2344 256.3438,436.7813 256.3438,436.3906 C256.3438,435.9375 255.9531,435.5469 255.4844,435.5469 C255.2656,435.5469 255.0625,435.625 254.875,435.8125 C254.4219,436.2969 254.4219,436.2969 254.2344,436.3906 C253.8125,436.6563 253.125,436.7813 252.3594,436.7813 C250.3125,436.7813 249.0156,435.6875 249.0156,433.9844 L249.0156,432.8906 C249.0156,431.1094 250.2656,429.7969 252,429.7969 C252.5781,429.7969 253.1875,429.9531 253.6563,430.2031 C254.1406,430.4844 254.3125,430.7031 254.4063,431.1094 C254.4688,431.5156 254.5,431.6406 254.6406,431.7656 C254.7813,431.9063 255.0156,432.0156 255.2344,432.0156 C255.5,432.0156 255.7656,431.875 255.9375,431.6563 C256.0469,431.5 256.0781,431.3125 256.0781,430.8906 L256.0781,429.4688 C256.0781,429.0313 256.0625,428.9063 255.9688,428.75 C255.8125,428.4844 255.5313,428.3438 255.2344,428.3438 C254.9375,428.3438 254.7344,428.4375 254.5156,428.75 L254.3438,428.6719 Z " fill="#000000"/><text fill="#000000" font-family="sans-serif" font-size="12" lengthAdjust="spacing" textLength="95" x="266" y="437.1543">PricingSummary</text><!--MD5=[72136138052d025cffdce3c22fbd185f]
class Product--><rect codeLine="54" fill="#FEFECE" filter="url(#f1stvum4ah9mqr)" height="104.0234" id="Product" style="stroke:#A80036;stroke-width:1.5;" width="146" x="425.5" y="381"/><ellipse cx="471.75" cy="397" fill="#ADD1B2" rx="11" ry="11" style="stroke:#A80036;stroke-width:1.0;"/><path d="M474.0938,392.6719 C473.1563,392.2344 472.5625,392.0938 471.6875,392.0938 C469.0625,392.0938 467.0625,394.1719 467.0625,396.8906 L467.0625,398.0156 C467.0625,400.5938 469.1719,402.4844 472.0625,402.4844 C473.2813,402.4844 474.4375,402.1875 475.1875,401.6406 C475.7656,401.2344 476.0938,400.7813 476.0938,400.3906 C476.0938,399.9375 475.7031,399.5469 475.2344,399.5469 C475.0156,399.5469 474.8125,399.625 474.625,399.8125 C474.1719,400.2969 474.1719,400.2969 473.9844,400.3906 C473.5625,400.6563 472.875,400.7813 472.1094,400.7813 C470.0625,400.7813 468.7656,399.6875 468.7656,397.9844 L468.7656,396.8906 C468.7656,395.1094 470.0156,393.7969 471.75,393.7969 C472.3281,393.7969 472.9375,393.9531 473.4063,394.2031 C473.8906,394.4844 474.0625,394.7031 474.1563,395.1094 C474.2188,395.5156 474.25,395.6406 474.3906,395.7656 C474.5313,395.9063 474.7656,396.0156 474.9844,396.0156 C475.25,396.0156 475.5156,395.875 475.6875,395.6563 C475.7969,395.5 475.8281,395.3125 475.8281,394.8906 L475.8281,393.4688 C475.8281,393.0313 475.8125,392.9063 475.7188,392.75 C475.5625,392.4844 475.2813,392.3438 474.9844,392.3438 C474.6875,392.3438 474.4844,392.4375 474.2656,392.75 L474.0938,392.6719 Z " fill="#000000"/><text fill="#000000" font-family="sans-serif" font-size="12" lengthAdjust="spacing" textLength="45" x="492.25" y="401.1543">Product</text><line style="stroke:#A80036;stroke-width:1.5;" x1="426.5" x2="570.5" y1="413" y2="413"/><text fill="#000000" font-family="sans-serif" font-size="11" lengthAdjust="spacing" textLength="101" x="431.5" y="427.2104">brand : string {O}</text><text fill="#000000" font-family="sans-serif" font-size="11" lengthAdjust="spacing" textLength="131" x="431.5" y="440.0151">description : string {O}</text><text fill="#000000" font-family="sans-serif" font-size="11" lengthAdjust="spacing" textLength="94" x="431.5" y="452.8198">epid : string {O}</text><text fill="#000000" font-family="sans-serif" font-size="11" lengthAdjust="spacing" textLength="134" x="431.5" y="465.6245">imageUrls : string[] {O}</text><text fill="#000000" font-family="sans-serif" font-size="11" lengthAdjust="spacing" textLength="91" x="431.5" y="478.4292">title : string {O}</text><!--MD5=[5ec4979861e4979cac5ea7317a6e7094]
class POST /item_draft/--><rect codeLine="62" fill="#FEFECE" filter="url(#f1stvum4ah9mqr)" height="71.5469" id="POST /item_draft/" style="stroke:#A80036;stroke-width:1.5;" width="208" x="487.5" y="42"/><text fill="#000000" font-family="sans-serif" font-size="12" font-style="italic" lengthAdjust="spacing" textLength="41" x="571" y="58.1387">«Path»</text><text fill="#000000" font-family="sans-serif" font-size="12" lengthAdjust="spacing" textLength="103" x="540" y="72.1074">POST /item_draft/</text><line style="stroke:#A80036;stroke-width:1.5;" x1="488.5" x2="694.5" y1="79.9375" y2="79.9375"/><text fill="#000000" font-family="sans-serif" font-size="11" lengthAdjust="spacing" textLength="174" x="493.5" y="94.1479">Content-Language : string {O}</text><text fill="#000000" font-family="sans-serif" font-size="11" lengthAdjust="spacing" textLength="196" x="493.5" y="106.9526">X-EBAY-C-MARKETPLACE-ID : string</text><!--MD5=[1919e1338ba0801837e09ceb5ca4ad91]
class POST /item_draft/ 400--><rect codeLine="67" fill="#FEFECE" filter="url(#f1stvum4ah9mqr)" height="37.9375" id="POST /item_draft/ 400" style="stroke:#A80036;stroke-width:1.5;" width="137" x="620" y="246"/><text fill="#000000" font-family="sans-serif" font-size="12" font-style="italic" lengthAdjust="spacing" textLength="71" x="653" y="262.1387">«Response»</text><text fill="#000000" font-family="sans-serif" font-size="12" lengthAdjust="spacing" textLength="131" x="623" y="276.1074">POST /item_draft/ 400</text><!--MD5=[a734105a08ec2e1e6dba20573027099b]
class POST /item_draft/ 500--><rect codeLine="70" fill="#FEFECE" filter="url(#f1stvum4ah9mqr)" height="37.9375" id="POST /item_draft/ 500" style="stroke:#A80036;stroke-width:1.5;" width="137" x="792" y="246"/><text fill="#000000" font-family="sans-serif" font-size="12" font-style="italic" lengthAdjust="spacing" textLength="71" x="825" y="262.1387">«Response»</text><text fill="#000000" font-family="sans-serif" font-size="12" lengthAdjust="spacing" textLength="131" x="795" y="276.1074">POST /item_draft/ 500</text><!--MD5=[637f5ac742092773715faa99459bef56]
link Error to ErrorParameter--><path codeLine="73" d="M1025.5,149.204 C1025.5,175.512 1025.5,204.377 1025.5,226.582 " fill="none" id="Error-to-ErrorParameter" style="stroke:#A80036;stroke-width:1.0;"/><polygon fill="#A80036" points="1025.5,231.789,1029.5,222.789,1025.5,226.789,1021.5,222.789,1025.5,231.789" style="stroke:#A80036;stroke-width:1.0;"/><text fill="#000000" font-family="sans-serif" font-size="13" lengthAdjust="spacing" textLength="75" x="1026.5" y="192.0669">parameters</text><text fill="#000000" font-family="sans-serif" font-size="13" lengthAdjust="spacing" textLength="7" x="1017.8109" y="220.8924">*</text><!--MD5=[54baf000fcc5d9b555dda39590579104]
link ItemDraft to PricingSummary--><path codeLine="75" d="M300.5,304.084 C300.5,337.646 300.5,385.229 300.5,411.89 " fill="none" id="ItemDraft-to-PricingSummary" style="stroke:#A80036;stroke-width:1.0;"/><polygon fill="#A80036" points="300.5,416.933,304.5,407.933,300.5,411.933,296.5,407.933,300.5,416.933" style="stroke:#A80036;stroke-width:1.0;"/><text fill="#000000" font-family="sans-serif" font-size="13" lengthAdjust="spacing" textLength="105" x="301.5" y="347.0669">pricingSummary</text><text fill="#000000" font-family="sans-serif" font-size="13" lengthAdjust="spacing" textLength="24" x="272.375" y="405.9216">0..1</text><!--MD5=[06c530c993aaa09b734b0d51ae1923c6]
link ItemDraft to Product--><path codeLine="77" d="M371.132,302.715 C386.421,312.018 402.029,322.63 415.5,334 C430.373,346.554 444.754,361.941 457.248,376.77 " fill="none" id="ItemDraft-to-Product" style="stroke:#A80036;stroke-width:1.0;"/><polygon fill="#A80036" points="460.721,380.934,458.0281,371.4605,457.5184,377.0943,451.8845,376.5846,460.721,380.934" style="stroke:#A80036;stroke-width:1.0;"/><text fill="#000000" font-family="sans-serif" font-size="13" lengthAdjust="spacing" textLength="49" x="434.5" y="347.0669">product</text><text fill="#000000" font-family="sans-serif" font-size="13" lengthAdjust="spacing" textLength="24" x="430.0319" y="370.0041">0..1</text><!--MD5=[58f6e03e21f0a853067931a37a157b2a]
link ItemDraft to Charity--><path codeLine="79" d="M255.534,304.084 C222.626,331.954 178.303,369.494 146.189,396.692 " fill="none" id="ItemDraft-to-Charity" style="stroke:#A80036;stroke-width:1.0;"/><polygon fill="#A80036" points="142.335,399.956,151.7881,397.1921,146.1506,396.7247,146.618,391.0872,142.335,399.956" style="stroke:#A80036;stroke-width:1.0;"/><text fill="#000000" font-family="sans-serif" font-size="13" lengthAdjust="spacing" textLength="44" x="221.5" y="347.0669">charity</text><text fill="#000000" font-family="sans-serif" font-size="13" lengthAdjust="spacing" textLength="24" x="123.6635" y="388.7147">0..1</text><!--MD5=[888559646648501a0f0ffc05392277f2]
link PricingSummary to Amount--><path codeLine="81" d="M280.121,449.185 C264.278,460.394 241.384,475.32 219.5,485 C173.94,505.151 141.646,475.339 111.5,515 C79.2199,557.469 155.233,577.6725 217.283,586.8769 " fill="none" id="PricingSummary-to-Amount" style="stroke:#A80036;stroke-width:1.0;"/><polygon fill="#A80036" points="222.48,587.6274,214.1437,582.3827,217.5313,586.9131,213.0009,590.3007,222.48,587.6274" style="stroke:#A80036;stroke-width:1.0;"/><text fill="#000000" font-family="sans-serif" font-size="13" lengthAdjust="spacing" textLength="131" x="112.5" y="528.0669">auctionReservePrice</text><text fill="#000000" font-family="sans-serif" font-size="13" lengthAdjust="spacing" textLength="24" x="190.5373" y="583.1875">0..1</text><!--MD5=[888559646648501a0f0ffc05392277f2]
link PricingSummary to Amount--><path codeLine="83" d="M296.6,449.096 C292.639,465.266 286.775,491.746 284.5,515 C283.764,522.52 284.317,524.447 284.5,532 C284.694,540.0295 285.03,548.6388 285.407,556.8097 " fill="none" id="PricingSummary-to-Amount-1" style="stroke:#A80036;stroke-width:1.0;"/><polygon fill="#A80036" points="285.647,561.8315,289.2128,552.6508,285.4083,556.8372,281.2219,553.0327,285.647,561.8315" style="stroke:#A80036;stroke-width:1.0;"/><text fill="#000000" font-family="sans-serif" font-size="13" lengthAdjust="spacing" textLength="109" x="285.5" y="528.0669">auctionStartPrice</text><text fill="#000000" font-family="sans-serif" font-size="13" lengthAdjust="spacing" textLength="24" x="258.9197" y="550.9433">0..1</text><!--MD5=[888559646648501a0f0ffc05392277f2]
link PricingSummary to Amount--><path codeLine="85" d="M336.489,449.155 C372.493,466.662 419.824,497.519 399.5,532 C389.803,548.451 373.999,560.8433 357.279,570.0481 " fill="none" id="PricingSummary-to-Amount-2" style="stroke:#A80036;stroke-width:1.0;"/><polygon fill="#A80036" points="352.543,572.5605,362.3679,571.8745,356.9595,570.2165,358.6175,564.808,352.543,572.5605" style="stroke:#A80036;stroke-width:1.0;"/><text fill="#000000" font-family="sans-serif" font-size="13" lengthAdjust="spacing" textLength="31" x="405.5" y="528.0669">price</text><text fill="#000000" font-family="sans-serif" font-size="13" lengthAdjust="spacing" textLength="24" x="360.4881" y="566.5669">0..1</text><!--MD5=[0f94bf81de778bc4f5e4399d4e813506]
link Product to Aspect--><path codeLine="87" d="M502.649,485.065 C504.548,508.433 506.756,535.6082 508.491,556.9704 " fill="none" id="Product-to-Aspect" style="stroke:#A80036;stroke-width:1.0;"/><polygon fill="#A80036" points="508.899,561.9912,512.157,552.6968,508.4941,557.0076,504.1832,553.3447,508.899,561.9912" style="stroke:#A80036;stroke-width:1.0;"/><text fill="#000000" font-family="sans-serif" font-size="13" lengthAdjust="spacing" textLength="50" x="507.5" y="528.0669">aspects</text><text fill="#000000" font-family="sans-serif" font-size="13" lengthAdjust="spacing" textLength="7" x="500.6407" y="550.7571">*</text><!--MD5=[c9532c6451125764706c7851417ca2c0]
link POST /item_draft/ to ItemDraftResponse--><path codeLine="89" d="M573.217,114.233 C557.454,144.609 534.643,188.569 517.808,221.01 " fill="none" id="POST /item_draft/-to-ItemDraftResponse" style="stroke:#A80036;stroke-width:1.0;stroke-dasharray:7.0,7.0;"/><polygon fill="#A80036" points="515.369,225.71,523.0644,219.5634,517.6717,221.2718,515.9632,215.8791,515.369,225.71" style="stroke:#A80036;stroke-width:1.0;"/><text fill="#000000" font-family="sans-serif" font-size="13" lengthAdjust="spacing" textLength="24" x="539.5" y="192.0669">201</text><text fill="#000000" font-family="sans-serif" font-size="13" lengthAdjust="spacing" textLength="8" x="509.9973" y="215.004">1</text><!--MD5=[e24fd36c526002ba42d17fa0f8183df5]
link POST /item_draft/ to POST /item_draft/ 400--><path codeLine="91" d="M609.973,114.233 C629.568,151.603 659.942,209.534 676.588,241.281 " fill="none" id="POST /item_draft/-to-POST /item_draft/ 400" style="stroke:#A80036;stroke-width:1.0;stroke-dasharray:7.0,7.0;"/><polygon fill="#A80036" points="678.941,245.77,678.304,235.9418,676.619,241.3418,671.219,239.6569,678.941,245.77" style="stroke:#A80036;stroke-width:1.0;"/><text fill="#000000" font-family="sans-serif" font-size="13" lengthAdjust="spacing" textLength="24" x="653.5" y="192.0669">400</text><text fill="#000000" font-family="sans-serif" font-size="13" lengthAdjust="spacing" textLength="8" x="666.958" y="235.0136">1</text><!--MD5=[17596ddc43af8f43cd8effd931ea91fb]
link POST /item_draft/ to POST /item_draft/ 500--><path codeLine="93" d="M642.413,114.015 C697.747,152.069 784.351,211.63 829.994,243.02 " fill="none" id="POST /item_draft/-to-POST /item_draft/ 500" style="stroke:#A80036;stroke-width:1.0;stroke-dasharray:7.0,7.0;"/><polygon fill="#A80036" points="834.281,245.968,829.1312,237.5728,830.161,243.1351,824.5986,244.1648,834.281,245.968" style="stroke:#A80036;stroke-width:1.0;"/><text fill="#000000" font-family="sans-serif" font-size="13" lengthAdjust="spacing" textLength="24" x="759.5" y="192.0669">500</text><text fill="#000000" font-family="sans-serif" font-size="13" lengthAdjust="spacing" textLength="8" x="817.0264" y="234.9394">1</text><!--MD5=[4d8c4f671c42d7863227f9fcd737f29e]
link POST /item_draft/ to ItemDraft--><path codeLine="95" d="M536.423,114.015 C487.541,145.091 416.101,190.508 364.654,223.215 " fill="none" id="POST /item_draft/-to-ItemDraft" style="stroke:#A80036;stroke-width:1.0;"/><polygon fill="#A80036" points="360.363,225.943,370.1041,224.49,364.5825,223.2605,365.812,217.7389,360.363,225.943" style="stroke:#A80036;stroke-width:1.0;"/><text fill="#000000" font-family="sans-serif" font-size="13" lengthAdjust="spacing" textLength="8" x="361.9645" y="214.9837">1</text><!--MD5=[3b8205c3fa7dc6826abbad2b11e800ca]
@startuml
hide <<Path>> circle
hide <<Response>> circle
hide <<Parameter>> circle
hide empty methods
hide empty fields
set namespaceSeparator none

class "Amount" {
  {field} currency : string {O}
  {field} value : string {O}
}

class "Aspect" {
  {field} name : string {O}
  {field} values : string[] {O}
}

class "Charity" {
  {field} donationPercentage : string {O}
  {field} charityId : string {O}
}

class "Error" {
  {field} category : string {O}
  {field} domain : string {O}
  {field} errorId : integer {O}
  {field} inputRefIds : string[] {O}
  {field} longMessage : string {O}
  {field} message : string {O}
  {field} outputRefIds : string[] {O}
  {field} subdomain : string {O}
}

class "ErrorParameter" {
  {field} name : string {O}
  {field} value : string {O}
}

class "ItemDraft" {
  {field} categoryId : string {O}
  {field} condition : string {O}
  {field} format : string {O}
}

class "ItemDraftResponse" {
  {field} itemDraftId : string {O}
  {field} sellFlowNativeUri : string {O}
  {field} sellFlowUrl : string {O}
}

class "PricingSummary" {
}

class "Product" {
  {field} brand : string {O}
  {field} description : string {O}
  {field} epid : string {O}
  {field} imageUrls : string[] {O}
  {field} title : string {O}
}

class "POST /item_draft/" <<Path>> {
  {field} Content-Language : string {O}
  {field} X-EBAY-C-MARKETPLACE-ID : string
}

class "POST /item_draft/ 400" <<Response>> {
}

class "POST /item_draft/ 500" <<Response>> {
}

"Error" - -> "*" "ErrorParameter"  :  "parameters"

"ItemDraft" - -> "0..1" "PricingSummary"  :  "pricingSummary"

"ItemDraft" - -> "0..1" "Product"  :  "product"

"ItemDraft" - -> "0..1" "Charity"  :  "charity"

"PricingSummary" - -> "0..1" "Amount"  :  "auctionReservePrice"

"PricingSummary" - -> "0..1" "Amount"  :  "auctionStartPrice"

"PricingSummary" - -> "0..1" "Amount"  :  "price"

"Product" - -> "*" "Aspect"  :  "aspects"

"POST /item_draft/" ..> "1" "ItemDraftResponse"  :  "201"

"POST /item_draft/" ..> "1" "POST /item_draft/ 400"  :  "400"

"POST /item_draft/" ..> "1" "POST /item_draft/ 500"  :  "500"

"POST /item_draft/" - -> "1" "ItemDraft"
@enduml

PlantUML version 1.2021.16beta1(Unknown compile time)
(GPL source distribution)
Java Runtime: Java(TM) SE Runtime Environment
JVM: Java HotSpot(TM) 64-Bit Server VM
Default Encoding: UTF-8
Language: en
Country: US
--></g></svg>