<?xml version="1.0" encoding="UTF-8" standalone="no"?><svg xmlns="http://www.w3.org/2000/svg" xmlns:xlink="http://www.w3.org/1999/xlink" contentScriptType="application/ecmascript" contentStyleType="text/css" height="886px" preserveAspectRatio="none" style="width:2569px;height:886px;background:#FFFFFF;" version="1.1" viewBox="0 0 2569 886" width="2569px" zoomAndPan="magnify"><defs><filter height="300%" id="fca3j78richc" width="300%" x="-1" y="-1"><feGaussianBlur result="blurOut" stdDeviation="2.0"/><feColorMatrix in="blurOut" result="blurOut2" type="matrix" values="0 0 0 0 0 0 0 0 0 0 0 0 0 0 0 0 0 0 .4 0"/><feOffset dx="4.0" dy="4.0" in="blurOut2" result="blurOut3"/><feBlend in="SourceGraphic" in2="blurOut3" mode="normal"/></filter></defs><g><!--MD5=[2770d511fa22a6a61bb54ccdb4cbf396]
class Amount--><rect codeLine="8" fill="#FEFECE" filter="url(#fca3j78richc)" height="65.6094" id="Amount" style="stroke:#A80036;stroke-width:1.5;" width="130" x="38.5" y="807"/><ellipse cx="77.35" cy="823" fill="#ADD1B2" rx="11" ry="11" style="stroke:#A80036;stroke-width:1.0;"/><path d="M79.6938,818.6719 C78.7563,818.2344 78.1625,818.0938 77.2875,818.0938 C74.6625,818.0938 72.6625,820.1719 72.6625,822.8906 L72.6625,824.0156 C72.6625,826.5938 74.7719,828.4844 77.6625,828.4844 C78.8813,828.4844 80.0375,828.1875 80.7875,827.6406 C81.3656,827.2344 81.6938,826.7813 81.6938,826.3906 C81.6938,825.9375 81.3031,825.5469 80.8344,825.5469 C80.6156,825.5469 80.4125,825.625 80.225,825.8125 C79.7719,826.2969 79.7719,826.2969 79.5844,826.3906 C79.1625,826.6563 78.475,826.7813 77.7094,826.7813 C75.6625,826.7813 74.3656,825.6875 74.3656,823.9844 L74.3656,822.8906 C74.3656,821.1094 75.6156,819.7969 77.35,819.7969 C77.9281,819.7969 78.5375,819.9531 79.0063,820.2031 C79.4906,820.4844 79.6625,820.7031 79.7563,821.1094 C79.8188,821.5156 79.85,821.6406 79.9906,821.7656 C80.1313,821.9063 80.3656,822.0156 80.5844,822.0156 C80.85,822.0156 81.1156,821.875 81.2875,821.6563 C81.3969,821.5 81.4281,821.3125 81.4281,820.8906 L81.4281,819.4688 C81.4281,819.0313 81.4125,818.9063 81.3188,818.75 C81.1625,818.4844 80.8813,818.3438 80.5844,818.3438 C80.2875,818.3438 80.0844,818.4375 79.8656,818.75 L79.6938,818.6719 Z " fill="#000000"/><text fill="#000000" font-family="sans-serif" font-size="12" lengthAdjust="spacing" textLength="45" x="96.65" y="827.1543">Amount</text><line style="stroke:#A80036;stroke-width:1.5;" x1="39.5" x2="167.5" y1="839" y2="839"/><text fill="#000000" font-family="sans-serif" font-size="11" lengthAdjust="spacing" textLength="118" x="44.5" y="853.2104">currency : string {O}</text><text fill="#000000" font-family="sans-serif" font-size="11" lengthAdjust="spacing" textLength="101" x="44.5" y="866.0151">value : string {O}</text><!--MD5=[bf03ca52f2a70bdeeaafd9000a6e4304]
class CreateOffersRequest--><rect codeLine="13" fill="#FEFECE" filter="url(#fca3j78richc)" height="65.6094" id="CreateOffersRequest" style="stroke:#A80036;stroke-width:1.5;" width="199" x="98" y="464.5"/><ellipse cx="131" cy="480.5" fill="#ADD1B2" rx="11" ry="11" style="stroke:#A80036;stroke-width:1.0;"/><path d="M133.3438,476.1719 C132.4063,475.7344 131.8125,475.5938 130.9375,475.5938 C128.3125,475.5938 126.3125,477.6719 126.3125,480.3906 L126.3125,481.5156 C126.3125,484.0938 128.4219,485.9844 131.3125,485.9844 C132.5313,485.9844 133.6875,485.6875 134.4375,485.1406 C135.0156,484.7344 135.3438,484.2813 135.3438,483.8906 C135.3438,483.4375 134.9531,483.0469 134.4844,483.0469 C134.2656,483.0469 134.0625,483.125 133.875,483.3125 C133.4219,483.7969 133.4219,483.7969 133.2344,483.8906 C132.8125,484.1563 132.125,484.2813 131.3594,484.2813 C129.3125,484.2813 128.0156,483.1875 128.0156,481.4844 L128.0156,480.3906 C128.0156,478.6094 129.2656,477.2969 131,477.2969 C131.5781,477.2969 132.1875,477.4531 132.6563,477.7031 C133.1406,477.9844 133.3125,478.2031 133.4063,478.6094 C133.4688,479.0156 133.5,479.1406 133.6406,479.2656 C133.7813,479.4063 134.0156,479.5156 134.2344,479.5156 C134.5,479.5156 134.7656,479.375 134.9375,479.1563 C135.0469,479 135.0781,478.8125 135.0781,478.3906 L135.0781,476.9688 C135.0781,476.5313 135.0625,476.4063 134.9688,476.25 C134.8125,475.9844 134.5313,475.8438 134.2344,475.8438 C133.9375,475.8438 133.7344,475.9375 133.5156,476.25 L133.3438,476.1719 Z " fill="#000000"/><text fill="#000000" font-family="sans-serif" font-size="12" lengthAdjust="spacing" textLength="127" x="149" y="484.6543">CreateOffersRequest</text><line style="stroke:#A80036;stroke-width:1.5;" x1="99" x2="296" y1="496.5" y2="496.5"/><text fill="#000000" font-family="sans-serif" font-size="11" lengthAdjust="spacing" textLength="187" x="104" y="510.7104">allowCounterOffer : boolean {O}</text><text fill="#000000" font-family="sans-serif" font-size="11" lengthAdjust="spacing" textLength="122" x="104" y="523.5151">message : string {O}</text><!--MD5=[2a56dddd03e06b7fe6ba40a0fa700989]
class EligibleItem--><rect codeLine="18" fill="#FEFECE" filter="url(#fca3j78richc)" height="52.8047" id="EligibleItem" style="stroke:#A80036;stroke-width:1.5;" width="124" x="1584.5" y="471"/><ellipse cx="1609.85" cy="487" fill="#ADD1B2" rx="11" ry="11" style="stroke:#A80036;stroke-width:1.0;"/><path d="M1612.1938,482.6719 C1611.2563,482.2344 1610.6625,482.0938 1609.7875,482.0938 C1607.1625,482.0938 1605.1625,484.1719 1605.1625,486.8906 L1605.1625,488.0156 C1605.1625,490.5938 1607.2719,492.4844 1610.1625,492.4844 C1611.3813,492.4844 1612.5375,492.1875 1613.2875,491.6406 C1613.8656,491.2344 1614.1938,490.7813 1614.1938,490.3906 C1614.1938,489.9375 1613.8031,489.5469 1613.3344,489.5469 C1613.1156,489.5469 1612.9125,489.625 1612.725,489.8125 C1612.2719,490.2969 1612.2719,490.2969 1612.0844,490.3906 C1611.6625,490.6563 1610.975,490.7813 1610.2094,490.7813 C1608.1625,490.7813 1606.8656,489.6875 1606.8656,487.9844 L1606.8656,486.8906 C1606.8656,485.1094 1608.1156,483.7969 1609.85,483.7969 C1610.4281,483.7969 1611.0375,483.9531 1611.5063,484.2031 C1611.9906,484.4844 1612.1625,484.7031 1612.2563,485.1094 C1612.3188,485.5156 1612.35,485.6406 1612.4906,485.7656 C1612.6313,485.9063 1612.8656,486.0156 1613.0844,486.0156 C1613.35,486.0156 1613.6156,485.875 1613.7875,485.6563 C1613.8969,485.5 1613.9281,485.3125 1613.9281,484.8906 L1613.9281,483.4688 C1613.9281,483.0313 1613.9125,482.9063 1613.8188,482.75 C1613.6625,482.4844 1613.3813,482.3438 1613.0844,482.3438 C1612.7875,482.3438 1612.5844,482.4375 1612.3656,482.75 L1612.1938,482.6719 Z " fill="#000000"/><text fill="#000000" font-family="sans-serif" font-size="12" lengthAdjust="spacing" textLength="69" x="1626.15" y="491.1543">EligibleItem</text><line style="stroke:#A80036;stroke-width:1.5;" x1="1585.5" x2="1707.5" y1="503" y2="503"/><text fill="#000000" font-family="sans-serif" font-size="11" lengthAdjust="spacing" textLength="112" x="1590.5" y="517.2104">listingId : string {O}</text><!--MD5=[b8cfd8c4119a3b0a7a46bfc5fc780f85]
class Error--><rect codeLine="22" fill="#FEFECE" filter="url(#fca3j78richc)" height="142.4375" id="Error" style="stroke:#A80036;stroke-width:1.5;" width="160" x="2395.5" y="7"/><ellipse cx="2456.25" cy="23" fill="#ADD1B2" rx="11" ry="11" style="stroke:#A80036;stroke-width:1.0;"/><path d="M2458.5938,18.6719 C2457.6563,18.2344 2457.0625,18.0938 2456.1875,18.0938 C2453.5625,18.0938 2451.5625,20.1719 2451.5625,22.8906 L2451.5625,24.0156 C2451.5625,26.5938 2453.6719,28.4844 2456.5625,28.4844 C2457.7813,28.4844 2458.9375,28.1875 2459.6875,27.6406 C2460.2656,27.2344 2460.5938,26.7813 2460.5938,26.3906 C2460.5938,25.9375 2460.2031,25.5469 2459.7344,25.5469 C2459.5156,25.5469 2459.3125,25.625 2459.125,25.8125 C2458.6719,26.2969 2458.6719,26.2969 2458.4844,26.3906 C2458.0625,26.6563 2457.375,26.7813 2456.6094,26.7813 C2454.5625,26.7813 2453.2656,25.6875 2453.2656,23.9844 L2453.2656,22.8906 C2453.2656,21.1094 2454.5156,19.7969 2456.25,19.7969 C2456.8281,19.7969 2457.4375,19.9531 2457.9063,20.2031 C2458.3906,20.4844 2458.5625,20.7031 2458.6563,21.1094 C2458.7188,21.5156 2458.75,21.6406 2458.8906,21.7656 C2459.0313,21.9063 2459.2656,22.0156 2459.4844,22.0156 C2459.75,22.0156 2460.0156,21.875 2460.1875,21.6563 C2460.2969,21.5 2460.3281,21.3125 2460.3281,20.8906 L2460.3281,19.4688 C2460.3281,19.0313 2460.3125,18.9063 2460.2188,18.75 C2460.0625,18.4844 2459.7813,18.3438 2459.4844,18.3438 C2459.1875,18.3438 2458.9844,18.4375 2458.7656,18.75 L2458.5938,18.6719 Z " fill="#000000"/><text fill="#000000" font-family="sans-serif" font-size="12" lengthAdjust="spacing" textLength="30" x="2476.75" y="27.1543">Error</text><line style="stroke:#A80036;stroke-width:1.5;" x1="2396.5" x2="2554.5" y1="39" y2="39"/><text fill="#000000" font-family="sans-serif" font-size="11" lengthAdjust="spacing" textLength="119" x="2401.5" y="53.2104">category : string {O}</text><text fill="#000000" font-family="sans-serif" font-size="11" lengthAdjust="spacing" textLength="111" x="2401.5" y="66.0151">domain : string {O}</text><text fill="#000000" font-family="sans-serif" font-size="11" lengthAdjust="spacing" textLength="116" x="2401.5" y="78.8198">errorId : integer {O}</text><text fill="#000000" font-family="sans-serif" font-size="11" lengthAdjust="spacing" textLength="140" x="2401.5" y="91.6245">inputRefIds : string[] {O}</text><text fill="#000000" font-family="sans-serif" font-size="11" lengthAdjust="spacing" textLength="144" x="2401.5" y="104.4292">longMessage : string {O}</text><text fill="#000000" font-family="sans-serif" font-size="11" lengthAdjust="spacing" textLength="122" x="2401.5" y="117.2339">message : string {O}</text><text fill="#000000" font-family="sans-serif" font-size="11" lengthAdjust="spacing" textLength="148" x="2401.5" y="130.0386">outputRefIds : string[] {O}</text><text fill="#000000" font-family="sans-serif" font-size="11" lengthAdjust="spacing" textLength="131" x="2401.5" y="142.8433">subdomain : string {O}</text><!--MD5=[82632de764b61605b5ca7287c966bab1]
class ErrorParameter--><rect codeLine="33" fill="#FEFECE" filter="url(#fca3j78richc)" height="65.6094" id="ErrorParameter" style="stroke:#A80036;stroke-width:1.5;" width="123" x="2414" y="251.5"/><ellipse cx="2429" cy="267.5" fill="#ADD1B2" rx="11" ry="11" style="stroke:#A80036;stroke-width:1.0;"/><path d="M2431.3438,263.1719 C2430.4063,262.7344 2429.8125,262.5938 2428.9375,262.5938 C2426.3125,262.5938 2424.3125,264.6719 2424.3125,267.3906 L2424.3125,268.5156 C2424.3125,271.0938 2426.4219,272.9844 2429.3125,272.9844 C2430.5313,272.9844 2431.6875,272.6875 2432.4375,272.1406 C2433.0156,271.7344 2433.3438,271.2813 2433.3438,270.8906 C2433.3438,270.4375 2432.9531,270.0469 2432.4844,270.0469 C2432.2656,270.0469 2432.0625,270.125 2431.875,270.3125 C2431.4219,270.7969 2431.4219,270.7969 2431.2344,270.8906 C2430.8125,271.1563 2430.125,271.2813 2429.3594,271.2813 C2427.3125,271.2813 2426.0156,270.1875 2426.0156,268.4844 L2426.0156,267.3906 C2426.0156,265.6094 2427.2656,264.2969 2429,264.2969 C2429.5781,264.2969 2430.1875,264.4531 2430.6563,264.7031 C2431.1406,264.9844 2431.3125,265.2031 2431.4063,265.6094 C2431.4688,266.0156 2431.5,266.1406 2431.6406,266.2656 C2431.7813,266.4063 2432.0156,266.5156 2432.2344,266.5156 C2432.5,266.5156 2432.7656,266.375 2432.9375,266.1563 C2433.0469,266 2433.0781,265.8125 2433.0781,265.3906 L2433.0781,263.9688 C2433.0781,263.5313 2433.0625,263.4063 2432.9688,263.25 C2432.8125,262.9844 2432.5313,262.8438 2432.2344,262.8438 C2431.9375,262.8438 2431.7344,262.9375 2431.5156,263.25 L2431.3438,263.1719 Z " fill="#000000"/><text fill="#000000" font-family="sans-serif" font-size="12" lengthAdjust="spacing" textLength="91" x="2443" y="271.6543">ErrorParameter</text><line style="stroke:#A80036;stroke-width:1.5;" x1="2415" x2="2536" y1="283.5" y2="283.5"/><text fill="#000000" font-family="sans-serif" font-size="11" lengthAdjust="spacing" textLength="102" x="2420" y="297.7104">name : string {O}</text><text fill="#000000" font-family="sans-serif" font-size="11" lengthAdjust="spacing" textLength="101" x="2420" y="310.5151">value : string {O}</text><!--MD5=[af8ed831b3fe9dbd380fec6c597723ab]
class Offer--><rect codeLine="38" fill="#FEFECE" filter="url(#fca3j78richc)" height="155.2422" id="Offer" style="stroke:#A80036;stroke-width:1.5;" width="199" x="341" y="420"/><ellipse cx="420.75" cy="436" fill="#ADD1B2" rx="11" ry="11" style="stroke:#A80036;stroke-width:1.0;"/><path d="M423.0938,431.6719 C422.1563,431.2344 421.5625,431.0938 420.6875,431.0938 C418.0625,431.0938 416.0625,433.1719 416.0625,435.8906 L416.0625,437.0156 C416.0625,439.5938 418.1719,441.4844 421.0625,441.4844 C422.2813,441.4844 423.4375,441.1875 424.1875,440.6406 C424.7656,440.2344 425.0938,439.7813 425.0938,439.3906 C425.0938,438.9375 424.7031,438.5469 424.2344,438.5469 C424.0156,438.5469 423.8125,438.625 423.625,438.8125 C423.1719,439.2969 423.1719,439.2969 422.9844,439.3906 C422.5625,439.6563 421.875,439.7813 421.1094,439.7813 C419.0625,439.7813 417.7656,438.6875 417.7656,436.9844 L417.7656,435.8906 C417.7656,434.1094 419.0156,432.7969 420.75,432.7969 C421.3281,432.7969 421.9375,432.9531 422.4063,433.2031 C422.8906,433.4844 423.0625,433.7031 423.1563,434.1094 C423.2188,434.5156 423.25,434.6406 423.3906,434.7656 C423.5313,434.9063 423.7656,435.0156 423.9844,435.0156 C424.25,435.0156 424.5156,434.875 424.6875,434.6563 C424.7969,434.5 424.8281,434.3125 424.8281,433.8906 L424.8281,432.4688 C424.8281,432.0313 424.8125,431.9063 424.7188,431.75 C424.5625,431.4844 424.2813,431.3438 423.9844,431.3438 C423.6875,431.3438 423.4844,431.4375 423.2656,431.75 L423.0938,431.6719 Z " fill="#000000"/><text fill="#000000" font-family="sans-serif" font-size="12" lengthAdjust="spacing" textLength="31" x="441.25" y="440.1543">Offer</text><line style="stroke:#A80036;stroke-width:1.5;" x1="342" x2="539" y1="452" y2="452"/><text fill="#000000" font-family="sans-serif" font-size="11" lengthAdjust="spacing" textLength="187" x="347" y="466.2104">allowCounterOffer : boolean {O}</text><text fill="#000000" font-family="sans-serif" font-size="11" lengthAdjust="spacing" textLength="143" x="347" y="479.0151">creationDate : string {O}</text><text fill="#000000" font-family="sans-serif" font-size="11" lengthAdjust="spacing" textLength="130" x="347" y="491.8198">initiatedBy : string {O}</text><text fill="#000000" font-family="sans-serif" font-size="11" lengthAdjust="spacing" textLength="165" x="347" y="504.6245">lastModifiedDate : string {O}</text><text fill="#000000" font-family="sans-serif" font-size="11" lengthAdjust="spacing" textLength="122" x="347" y="517.4292">message : string {O}</text><text fill="#000000" font-family="sans-serif" font-size="11" lengthAdjust="spacing" textLength="106" x="347" y="530.2339">offerId : string {O}</text><text fill="#000000" font-family="sans-serif" font-size="11" lengthAdjust="spacing" textLength="132" x="347" y="543.0386">offerStatus : string {O}</text><text fill="#000000" font-family="sans-serif" font-size="11" lengthAdjust="spacing" textLength="125" x="347" y="555.8433">offerType : string {O}</text><text fill="#000000" font-family="sans-serif" font-size="11" lengthAdjust="spacing" textLength="114" x="347" y="568.6479">revision : string {O}</text><!--MD5=[5f8e47bad9f7c4794f00bede89d85fa0]
class OfferedItem--><rect codeLine="50" fill="#FEFECE" filter="url(#fca3j78richc)" height="78.4141" id="OfferedItem" style="stroke:#A80036;stroke-width:1.5;" width="193" x="7" y="652"/><ellipse cx="62.75" cy="668" fill="#ADD1B2" rx="11" ry="11" style="stroke:#A80036;stroke-width:1.0;"/><path d="M65.0938,663.6719 C64.1563,663.2344 63.5625,663.0938 62.6875,663.0938 C60.0625,663.0938 58.0625,665.1719 58.0625,667.8906 L58.0625,669.0156 C58.0625,671.5938 60.1719,673.4844 63.0625,673.4844 C64.2813,673.4844 65.4375,673.1875 66.1875,672.6406 C66.7656,672.2344 67.0938,671.7813 67.0938,671.3906 C67.0938,670.9375 66.7031,670.5469 66.2344,670.5469 C66.0156,670.5469 65.8125,670.625 65.625,670.8125 C65.1719,671.2969 65.1719,671.2969 64.9844,671.3906 C64.5625,671.6563 63.875,671.7813 63.1094,671.7813 C61.0625,671.7813 59.7656,670.6875 59.7656,668.9844 L59.7656,667.8906 C59.7656,666.1094 61.0156,664.7969 62.75,664.7969 C63.3281,664.7969 63.9375,664.9531 64.4063,665.2031 C64.8906,665.4844 65.0625,665.7031 65.1563,666.1094 C65.2188,666.5156 65.25,666.6406 65.3906,666.7656 C65.5313,666.9063 65.7656,667.0156 65.9844,667.0156 C66.25,667.0156 66.5156,666.875 66.6875,666.6563 C66.7969,666.5 66.8281,666.3125 66.8281,665.8906 L66.8281,664.4688 C66.8281,664.0313 66.8125,663.9063 66.7188,663.75 C66.5625,663.4844 66.2813,663.3438 65.9844,663.3438 C65.6875,663.3438 65.4844,663.4375 65.2656,663.75 L65.0938,663.6719 Z " fill="#000000"/><text fill="#000000" font-family="sans-serif" font-size="12" lengthAdjust="spacing" textLength="73" x="83.25" y="672.1543">OfferedItem</text><line style="stroke:#A80036;stroke-width:1.5;" x1="8" x2="199" y1="684" y2="684"/><text fill="#000000" font-family="sans-serif" font-size="11" lengthAdjust="spacing" textLength="181" x="13" y="698.2104">discountPercentage : string {O}</text><text fill="#000000" font-family="sans-serif" font-size="11" lengthAdjust="spacing" textLength="112" x="13" y="711.0151">listingId : string {O}</text><text fill="#000000" font-family="sans-serif" font-size="11" lengthAdjust="spacing" textLength="125" x="13" y="723.8198">quantity : integer {O}</text><!--MD5=[85ead31157089ac1e62597c31f151728]
class PagedEligibleItemCollection--><rect codeLine="56" fill="#FEFECE" filter="url(#fca3j78richc)" height="116.8281" id="PagedEligibleItemCollection" style="stroke:#A80036;stroke-width:1.5;" width="197" x="1548" y="226"/><ellipse cx="1563" cy="242" fill="#ADD1B2" rx="11" ry="11" style="stroke:#A80036;stroke-width:1.0;"/><path d="M1565.3438,237.6719 C1564.4063,237.2344 1563.8125,237.0938 1562.9375,237.0938 C1560.3125,237.0938 1558.3125,239.1719 1558.3125,241.8906 L1558.3125,243.0156 C1558.3125,245.5938 1560.4219,247.4844 1563.3125,247.4844 C1564.5313,247.4844 1565.6875,247.1875 1566.4375,246.6406 C1567.0156,246.2344 1567.3438,245.7813 1567.3438,245.3906 C1567.3438,244.9375 1566.9531,244.5469 1566.4844,244.5469 C1566.2656,244.5469 1566.0625,244.625 1565.875,244.8125 C1565.4219,245.2969 1565.4219,245.2969 1565.2344,245.3906 C1564.8125,245.6563 1564.125,245.7813 1563.3594,245.7813 C1561.3125,245.7813 1560.0156,244.6875 1560.0156,242.9844 L1560.0156,241.8906 C1560.0156,240.1094 1561.2656,238.7969 1563,238.7969 C1563.5781,238.7969 1564.1875,238.9531 1564.6563,239.2031 C1565.1406,239.4844 1565.3125,239.7031 1565.4063,240.1094 C1565.4688,240.5156 1565.5,240.6406 1565.6406,240.7656 C1565.7813,240.9063 1566.0156,241.0156 1566.2344,241.0156 C1566.5,241.0156 1566.7656,240.875 1566.9375,240.6563 C1567.0469,240.5 1567.0781,240.3125 1567.0781,239.8906 L1567.0781,238.4688 C1567.0781,238.0313 1567.0625,237.9063 1566.9688,237.75 C1566.8125,237.4844 1566.5313,237.3438 1566.2344,237.3438 C1565.9375,237.3438 1565.7344,237.4375 1565.5156,237.75 L1565.3438,237.6719 Z " fill="#000000"/><text fill="#000000" font-family="sans-serif" font-size="12" lengthAdjust="spacing" textLength="165" x="1577" y="246.1543">PagedEligibleItemCollection</text><line style="stroke:#A80036;stroke-width:1.5;" x1="1549" x2="1744" y1="258" y2="258"/><text fill="#000000" font-family="sans-serif" font-size="11" lengthAdjust="spacing" textLength="92" x="1554" y="272.2104">href : string {O}</text><text fill="#000000" font-family="sans-serif" font-size="11" lengthAdjust="spacing" textLength="103" x="1554" y="285.0151">limit : integer {O}</text><text fill="#000000" font-family="sans-serif" font-size="11" lengthAdjust="spacing" textLength="95" x="1554" y="297.8198">next : string {O}</text><text fill="#000000" font-family="sans-serif" font-size="11" lengthAdjust="spacing" textLength="112" x="1554" y="310.6245">offset : integer {O}</text><text fill="#000000" font-family="sans-serif" font-size="11" lengthAdjust="spacing" textLength="95" x="1554" y="323.4292">prev : string {O}</text><text fill="#000000" font-family="sans-serif" font-size="11" lengthAdjust="spacing" textLength="104" x="1554" y="336.2339">total : integer {O}</text><!--MD5=[ff37a9ae1c6cebf669d6751701effff9]
class SendOfferToInterestedBuyersCollectionResponse--><rect codeLine="65" fill="#FEFECE" filter="url(#fca3j78richc)" height="32" id="SendOfferToInterestedBuyersCollectionResponse" style="stroke:#A80036;stroke-width:1.5;" width="332" x="259.5" y="268.5"/><ellipse cx="274.5" cy="284.5" fill="#ADD1B2" rx="11" ry="11" style="stroke:#A80036;stroke-width:1.0;"/><path d="M276.8438,280.1719 C275.9063,279.7344 275.3125,279.5938 274.4375,279.5938 C271.8125,279.5938 269.8125,281.6719 269.8125,284.3906 L269.8125,285.5156 C269.8125,288.0938 271.9219,289.9844 274.8125,289.9844 C276.0313,289.9844 277.1875,289.6875 277.9375,289.1406 C278.5156,288.7344 278.8438,288.2813 278.8438,287.8906 C278.8438,287.4375 278.4531,287.0469 277.9844,287.0469 C277.7656,287.0469 277.5625,287.125 277.375,287.3125 C276.9219,287.7969 276.9219,287.7969 276.7344,287.8906 C276.3125,288.1563 275.625,288.2813 274.8594,288.2813 C272.8125,288.2813 271.5156,287.1875 271.5156,285.4844 L271.5156,284.3906 C271.5156,282.6094 272.7656,281.2969 274.5,281.2969 C275.0781,281.2969 275.6875,281.4531 276.1563,281.7031 C276.6406,281.9844 276.8125,282.2031 276.9063,282.6094 C276.9688,283.0156 277,283.1406 277.1406,283.2656 C277.2813,283.4063 277.5156,283.5156 277.7344,283.5156 C278,283.5156 278.2656,283.375 278.4375,283.1563 C278.5469,283 278.5781,282.8125 278.5781,282.3906 L278.5781,280.9688 C278.5781,280.5313 278.5625,280.4063 278.4688,280.25 C278.3125,279.9844 278.0313,279.8438 277.7344,279.8438 C277.4375,279.8438 277.2344,279.9375 277.0156,280.25 L276.8438,280.1719 Z " fill="#000000"/><text fill="#000000" font-family="sans-serif" font-size="12" lengthAdjust="spacing" textLength="300" x="288.5" y="288.6543">SendOfferToInterestedBuyersCollectionResponse</text><!--MD5=[397601ae6eff1b60321a87a61fd75738]
class TimeDuration--><rect codeLine="68" fill="#FEFECE" filter="url(#fca3j78richc)" height="65.6094" id="TimeDuration" style="stroke:#A80036;stroke-width:1.5;" width="123" x="297" y="658"/><ellipse cx="317.4" cy="674" fill="#ADD1B2" rx="11" ry="11" style="stroke:#A80036;stroke-width:1.0;"/><path d="M319.7438,669.6719 C318.8063,669.2344 318.2125,669.0938 317.3375,669.0938 C314.7125,669.0938 312.7125,671.1719 312.7125,673.8906 L312.7125,675.0156 C312.7125,677.5938 314.8219,679.4844 317.7125,679.4844 C318.9313,679.4844 320.0875,679.1875 320.8375,678.6406 C321.4156,678.2344 321.7438,677.7813 321.7438,677.3906 C321.7438,676.9375 321.3531,676.5469 320.8844,676.5469 C320.6656,676.5469 320.4625,676.625 320.275,676.8125 C319.8219,677.2969 319.8219,677.2969 319.6344,677.3906 C319.2125,677.6563 318.525,677.7813 317.7594,677.7813 C315.7125,677.7813 314.4156,676.6875 314.4156,674.9844 L314.4156,673.8906 C314.4156,672.1094 315.6656,670.7969 317.4,670.7969 C317.9781,670.7969 318.5875,670.9531 319.0563,671.2031 C319.5406,671.4844 319.7125,671.7031 319.8063,672.1094 C319.8688,672.5156 319.9,672.6406 320.0406,672.7656 C320.1813,672.9063 320.4156,673.0156 320.6344,673.0156 C320.9,673.0156 321.1656,672.875 321.3375,672.6563 C321.4469,672.5 321.4781,672.3125 321.4781,671.8906 L321.4781,670.4688 C321.4781,670.0313 321.4625,669.9063 321.3688,669.75 C321.2125,669.4844 320.9313,669.3438 320.6344,669.3438 C320.3375,669.3438 320.1344,669.4375 319.9156,669.75 L319.7438,669.6719 Z " fill="#000000"/><text fill="#000000" font-family="sans-serif" font-size="12" lengthAdjust="spacing" textLength="79" x="332.6" y="678.1543">TimeDuration</text><line style="stroke:#A80036;stroke-width:1.5;" x1="298" x2="419" y1="690" y2="690"/><text fill="#000000" font-family="sans-serif" font-size="11" lengthAdjust="spacing" textLength="90" x="303" y="704.2104">unit : string {O}</text><text fill="#000000" font-family="sans-serif" font-size="11" lengthAdjust="spacing" textLength="111" x="303" y="717.0151">value : integer {O}</text><!--MD5=[3fd616f346a44cd59a91eb10b19e157c]
class User--><rect codeLine="73" fill="#FEFECE" filter="url(#fca3j78richc)" height="52.8047" id="User" style="stroke:#A80036;stroke-width:1.5;" width="185" x="486" y="664.5"/><ellipse cx="559.75" cy="680.5" fill="#ADD1B2" rx="11" ry="11" style="stroke:#A80036;stroke-width:1.0;"/><path d="M562.0938,676.1719 C561.1563,675.7344 560.5625,675.5938 559.6875,675.5938 C557.0625,675.5938 555.0625,677.6719 555.0625,680.3906 L555.0625,681.5156 C555.0625,684.0938 557.1719,685.9844 560.0625,685.9844 C561.2813,685.9844 562.4375,685.6875 563.1875,685.1406 C563.7656,684.7344 564.0938,684.2813 564.0938,683.8906 C564.0938,683.4375 563.7031,683.0469 563.2344,683.0469 C563.0156,683.0469 562.8125,683.125 562.625,683.3125 C562.1719,683.7969 562.1719,683.7969 561.9844,683.8906 C561.5625,684.1563 560.875,684.2813 560.1094,684.2813 C558.0625,684.2813 556.7656,683.1875 556.7656,681.4844 L556.7656,680.3906 C556.7656,678.6094 558.0156,677.2969 559.75,677.2969 C560.3281,677.2969 560.9375,677.4531 561.4063,677.7031 C561.8906,677.9844 562.0625,678.2031 562.1563,678.6094 C562.2188,679.0156 562.25,679.1406 562.3906,679.2656 C562.5313,679.4063 562.7656,679.5156 562.9844,679.5156 C563.25,679.5156 563.5156,679.375 563.6875,679.1563 C563.7969,679 563.8281,678.8125 563.8281,678.3906 L563.8281,676.9688 C563.8281,676.5313 563.8125,676.4063 563.7188,676.25 C563.5625,675.9844 563.2813,675.8438 562.9844,675.8438 C562.6875,675.8438 562.4844,675.9375 562.2656,676.25 L562.0938,676.1719 Z " fill="#000000"/><text fill="#000000" font-family="sans-serif" font-size="12" lengthAdjust="spacing" textLength="29" x="580.25" y="684.6543">User</text><line style="stroke:#A80036;stroke-width:1.5;" x1="487" x2="670" y1="696.5" y2="696.5"/><text fill="#000000" font-family="sans-serif" font-size="11" lengthAdjust="spacing" textLength="173" x="492" y="710.7104">maskedUsername : string {O}</text><!--MD5=[359069b5340195c47dedf4ad6996be6b]
class GET /find_eligible_items--><rect codeLine="77" fill="#FEFECE" filter="url(#fca3j78richc)" height="84.3516" id="GET /find_eligible_items" style="stroke:#A80036;stroke-width:1.5;" width="208" x="1869.5" y="36"/><text fill="#000000" font-family="sans-serif" font-size="12" font-style="italic" lengthAdjust="spacing" textLength="41" x="1953" y="52.1387">«Path»</text><text fill="#000000" font-family="sans-serif" font-size="12" lengthAdjust="spacing" textLength="142" x="1902.5" y="66.1074">GET /find_eligible_items</text><line style="stroke:#A80036;stroke-width:1.5;" x1="1870.5" x2="2076.5" y1="73.9375" y2="73.9375"/><text fill="#000000" font-family="sans-serif" font-size="11" lengthAdjust="spacing" textLength="93" x="1875.5" y="88.1479">limit : string {O}</text><text fill="#000000" font-family="sans-serif" font-size="11" lengthAdjust="spacing" textLength="102" x="1875.5" y="100.9526">offset : string {O}</text><text fill="#000000" font-family="sans-serif" font-size="11" lengthAdjust="spacing" textLength="196" x="1875.5" y="113.7573">X-EBAY-C-MARKETPLACE-ID : string</text><!--MD5=[8a67ae29f85912781524b3dc77ad392d]
class GET /find_eligible_items 204--><rect codeLine="83" fill="#FEFECE" filter="url(#fca3j78richc)" height="37.9375" id="GET /find_eligible_items 204" style="stroke:#A80036;stroke-width:1.5;" width="176" x="1780.5" y="265.5"/><text fill="#000000" font-family="sans-serif" font-size="12" font-style="italic" lengthAdjust="spacing" textLength="71" x="1833" y="281.6387">«Response»</text><text fill="#000000" font-family="sans-serif" font-size="12" lengthAdjust="spacing" textLength="170" x="1783.5" y="295.6074">GET /find_eligible_items 204</text><!--MD5=[8e9b58a87e19e34b8ed320f1742954a1]
class GET /find_eligible_items 400--><rect codeLine="86" fill="#FEFECE" filter="url(#fca3j78richc)" height="37.9375" id="GET /find_eligible_items 400" style="stroke:#A80036;stroke-width:1.5;" width="176" x="1991.5" y="265.5"/><text fill="#000000" font-family="sans-serif" font-size="12" font-style="italic" lengthAdjust="spacing" textLength="71" x="2044" y="281.6387">«Response»</text><text fill="#000000" font-family="sans-serif" font-size="12" lengthAdjust="spacing" textLength="170" x="1994.5" y="295.6074">GET /find_eligible_items 400</text><!--MD5=[d63f554e8d1d55f1c658d46e49028c8c]
class GET /find_eligible_items 500--><rect codeLine="89" fill="#FEFECE" filter="url(#fca3j78richc)" height="37.9375" id="GET /find_eligible_items 500" style="stroke:#A80036;stroke-width:1.5;" width="176" x="2202.5" y="265.5"/><text fill="#000000" font-family="sans-serif" font-size="12" font-style="italic" lengthAdjust="spacing" textLength="71" x="2255" y="281.6387">«Response»</text><text fill="#000000" font-family="sans-serif" font-size="12" lengthAdjust="spacing" textLength="170" x="2205.5" y="295.6074">GET /find_eligible_items 500</text><!--MD5=[574c23ec969f8f832379d38450b43a00]
class POST /send_offer_to_interested_buyers--><rect codeLine="92" fill="#FEFECE" filter="url(#fca3j78richc)" height="58.7422" id="POST /send_offer_to_interested_buyers" style="stroke:#A80036;stroke-width:1.5;" width="244" x="640.5" y="48.5"/><text fill="#000000" font-family="sans-serif" font-size="12" font-style="italic" lengthAdjust="spacing" textLength="41" x="742" y="64.6387">«Path»</text><text fill="#000000" font-family="sans-serif" font-size="12" lengthAdjust="spacing" textLength="238" x="643.5" y="78.6074">POST /send_offer_to_interested_buyers</text><line style="stroke:#A80036;stroke-width:1.5;" x1="641.5" x2="883.5" y1="86.4375" y2="86.4375"/><text fill="#000000" font-family="sans-serif" font-size="11" lengthAdjust="spacing" textLength="196" x="646.5" y="100.6479">X-EBAY-C-MARKETPLACE-ID : string</text><!--MD5=[4acb627dab90d6c4e26ac403e0e40714]
class POST /send_offer_to_interested_buyers 400--><rect codeLine="96" fill="#FEFECE" filter="url(#fca3j78richc)" height="37.9375" id="POST /send_offer_to_interested_buyers 400" style="stroke:#A80036;stroke-width:1.5;" width="272" x="626.5" y="265.5"/><text fill="#000000" font-family="sans-serif" font-size="12" font-style="italic" lengthAdjust="spacing" textLength="71" x="727" y="281.6387">«Response»</text><text fill="#000000" font-family="sans-serif" font-size="12" lengthAdjust="spacing" textLength="266" x="629.5" y="295.6074">POST /send_offer_to_interested_buyers 400</text><!--MD5=[f9e4534afcc3fc94f6806fa331866f80]
class POST /send_offer_to_interested_buyers 409--><rect codeLine="99" fill="#FEFECE" filter="url(#fca3j78richc)" height="37.9375" id="POST /send_offer_to_interested_buyers 409" style="stroke:#A80036;stroke-width:1.5;" width="272" x="933.5" y="265.5"/><text fill="#000000" font-family="sans-serif" font-size="12" font-style="italic" lengthAdjust="spacing" textLength="71" x="1034" y="281.6387">«Response»</text><text fill="#000000" font-family="sans-serif" font-size="12" lengthAdjust="spacing" textLength="266" x="936.5" y="295.6074">POST /send_offer_to_interested_buyers 409</text><!--MD5=[81aea80015f0d494b455f334ed5214af]
class POST /send_offer_to_interested_buyers 500--><rect codeLine="102" fill="#FEFECE" filter="url(#fca3j78richc)" height="37.9375" id="POST /send_offer_to_interested_buyers 500" style="stroke:#A80036;stroke-width:1.5;" width="272" x="1240.5" y="265.5"/><text fill="#000000" font-family="sans-serif" font-size="12" font-style="italic" lengthAdjust="spacing" textLength="71" x="1341" y="281.6387">«Response»</text><text fill="#000000" font-family="sans-serif" font-size="12" lengthAdjust="spacing" textLength="266" x="1243.5" y="295.6074">POST /send_offer_to_interested_buyers 500</text><!--MD5=[b70aa0f35eb70e6c6d2d6691be2e0ff4]
link CreateOffersRequest to TimeDuration--><path codeLine="105" d="M187.192,530.727 C180.733,557.445 176.632,595.248 194.5,622 C216.12,654.369 256.32,671.351 291.507,680.249 " fill="none" id="CreateOffersRequest-to-TimeDuration" style="stroke:#A80036;stroke-width:1.0;"/><polygon fill="#A80036" points="296.66,681.504,288.8616,675.4886,291.8019,680.3213,286.9692,683.2615,296.66,681.504" style="stroke:#A80036;stroke-width:1.0;"/><text fill="#000000" font-family="sans-serif" font-size="13" lengthAdjust="spacing" textLength="86" x="195.5" y="618.0669">offerDuration</text><text fill="#000000" font-family="sans-serif" font-size="13" lengthAdjust="spacing" textLength="24" x="265.0453" y="676.8452">0..1</text><!--MD5=[3e9c60ee39709c23998d7cc4be318a4d]
link CreateOffersRequest to OfferedItem--><path codeLine="107" d="M139.308,530.596 C112.788,548.65 84.1033,573.853 69.5,605 C63.1352,618.575 66.0782,633.688 72.3334,647.362 " fill="none" id="CreateOffersRequest-to-OfferedItem" style="stroke:#A80036;stroke-width:1.0;"/><polygon fill="#A80036" points="74.5731,651.939,74.2113,642.0968,72.3759,647.4476,67.0251,645.6123,74.5731,651.939" style="stroke:#A80036;stroke-width:1.0;"/><text fill="#000000" font-family="sans-serif" font-size="13" lengthAdjust="spacing" textLength="83" x="70.5" y="618.0669">offeredItems</text><text fill="#000000" font-family="sans-serif" font-size="13" lengthAdjust="spacing" textLength="7" x="61.9997" y="640.9791">*</text><!--MD5=[637f5ac742092773715faa99459bef56]
link Error to ErrorParameter--><path codeLine="109" d="M2475.5,149.091 C2475.5,181.61 2475.5,218.96 2475.5,246.021 " fill="none" id="Error-to-ErrorParameter" style="stroke:#A80036;stroke-width:1.0;"/><polygon fill="#A80036" points="2475.5,251.292,2479.5,242.292,2475.5,246.292,2471.5,242.292,2475.5,251.292" style="stroke:#A80036;stroke-width:1.0;"/><text fill="#000000" font-family="sans-serif" font-size="13" lengthAdjust="spacing" textLength="75" x="2476.5" y="192.0669">parameters</text><text fill="#000000" font-family="sans-serif" font-size="13" lengthAdjust="spacing" textLength="7" x="2467.8109" y="240.396">*</text><!--MD5=[f43e01a1a7109f8dccc5d1d6a345ac6a]
link Offer to User--><path codeLine="111" d="M495.636,575.011 C517.122,604.827 540.478,637.237 556.9,660.027 " fill="none" id="Offer-to-User" style="stroke:#A80036;stroke-width:1.0;"/><polygon fill="#A80036" points="559.884,664.167,557.8687,654.5265,556.9613,660.1101,551.3777,659.2028,559.884,664.167" style="stroke:#A80036;stroke-width:1.0;"/><text fill="#000000" font-family="sans-serif" font-size="13" lengthAdjust="spacing" textLength="37" x="527.5" y="618.0669">buyer</text><text fill="#000000" font-family="sans-serif" font-size="13" lengthAdjust="spacing" textLength="24" x="528.8041" y="653.3323">0..1</text><!--MD5=[4fc3c8bc4884b9f2fe734a5740572558]
link Offer to TimeDuration--><path codeLine="113" d="M427.953,575.042 C423.854,591.001 418.488,607.398 411.5,622 C406.242,632.987 398.972,643.86 391.499,653.581 " fill="none" id="Offer-to-TimeDuration" style="stroke:#A80036;stroke-width:1.0;"/><polygon fill="#A80036" points="388.29,657.674,396.9917,653.0609,391.3757,653.7397,390.6968,648.1238,388.29,657.674" style="stroke:#A80036;stroke-width:1.0;"/><text fill="#000000" font-family="sans-serif" font-size="13" lengthAdjust="spacing" textLength="86" x="419.5" y="618.0669">offerDuration</text><text fill="#000000" font-family="sans-serif" font-size="13" lengthAdjust="spacing" textLength="24" x="367.6812" y="647.0083">0..1</text><!--MD5=[af825a15889c3fe26c2c20868d6dbfe5]
link Offer to OfferedItem--><path codeLine="115" d="M354.812,575.145 C333.433,591.985 309.902,608.729 286.5,622 C261.138,636.382 232.157,648.777 204.853,658.896 " fill="none" id="Offer-to-OfferedItem" style="stroke:#A80036;stroke-width:1.0;"/><polygon fill="#A80036" points="200.132,660.629,209.9592,661.2823,204.8257,658.9058,207.2021,653.7724,200.132,660.629" style="stroke:#A80036;stroke-width:1.0;"/><text fill="#000000" font-family="sans-serif" font-size="13" lengthAdjust="spacing" textLength="83" x="315.5" y="618.0669">offeredItems</text><text fill="#000000" font-family="sans-serif" font-size="13" lengthAdjust="spacing" textLength="7" x="208.1113" y="654.6668">*</text><!--MD5=[1f1ea9becdd9da75c0dda47eeafa2763]
link OfferedItem to Amount--><path codeLine="117" d="M103.5,730.239 C103.5,752.29 103.5,779.8914 103.5,801.7703 " fill="none" id="OfferedItem-to-Amount" style="stroke:#A80036;stroke-width:1.0;"/><polygon fill="#A80036" points="103.5,806.9162,107.5,797.9162,103.5,801.9162,99.5,797.9162,103.5,806.9162" style="stroke:#A80036;stroke-width:1.0;"/><text fill="#000000" font-family="sans-serif" font-size="13" lengthAdjust="spacing" textLength="31" x="104.5" y="773.0669">price</text><text fill="#000000" font-family="sans-serif" font-size="13" lengthAdjust="spacing" textLength="24" x="77.1375" y="796.0447">0..1</text><!--MD5=[6dcccb7302d86a4366c47faed79dad33]
link PagedEligibleItemCollection to EligibleItem--><path codeLine="119" d="M1646.5,343.157 C1646.5,382.605 1646.5,433.375 1646.5,465.44 " fill="none" id="PagedEligibleItemCollection-to-EligibleItem" style="stroke:#A80036;stroke-width:1.0;"/><polygon fill="#A80036" points="1646.5,470.812,1650.5,461.812,1646.5,465.812,1642.5,461.812,1646.5,470.812" style="stroke:#A80036;stroke-width:1.0;"/><text fill="#000000" font-family="sans-serif" font-size="13" lengthAdjust="spacing" textLength="80" x="1647.5" y="386.0669">eligibleItems</text><text fill="#000000" font-family="sans-serif" font-size="13" lengthAdjust="spacing" textLength="7" x="1638.6906" y="460.0109">*</text><!--MD5=[383b5806da630994e77107817972937d]
link SendOfferToInterestedBuyersCollectionResponse to Offer--><path codeLine="121" d="M426.579,300.675 C428.27,324.465 431.664,372.208 434.677,414.596 " fill="none" id="SendOfferToInterestedBuyersCollectionResponse-to-Offer" style="stroke:#A80036;stroke-width:1.0;"/><polygon fill="#A80036" points="435.043,419.737,438.3952,410.4762,434.6887,414.7496,430.4153,411.0431,435.043,419.737" style="stroke:#A80036;stroke-width:1.0;"/><text fill="#000000" font-family="sans-serif" font-size="13" lengthAdjust="spacing" textLength="38" x="434.5" y="386.0669">offers</text><text fill="#000000" font-family="sans-serif" font-size="13" lengthAdjust="spacing" textLength="7" x="427.2173" y="408.9387">*</text><!--MD5=[0b4aa2db20b73dc3114345494d956133]
link GET /find_eligible_items to PagedEligibleItemCollection--><path codeLine="123" d="M1907.72,120.138 C1860.46,149.69 1796.01,190.001 1742.95,223.185 " fill="none" id="GET /find_eligible_items-to-PagedEligibleItemCollection" style="stroke:#A80036;stroke-width:1.0;stroke-dasharray:7.0,7.0;"/><polygon fill="#A80036" points="1738.5,225.966,1748.2501,224.5747,1742.7364,223.3102,1744.0009,217.7965,1738.5,225.966" style="stroke:#A80036;stroke-width:1.0;"/><text fill="#000000" font-family="sans-serif" font-size="13" lengthAdjust="spacing" textLength="24" x="1811.5" y="192.0669">200</text><text fill="#000000" font-family="sans-serif" font-size="13" lengthAdjust="spacing" textLength="8" x="1741.225" y="215.0036">1</text><!--MD5=[e9f41c2288f18194d5cd818896bdd42f]
link GET /find_eligible_items to GET /find_eligible_items 204--><path codeLine="125" d="M1952.25,120.384 C1930.55,162.655 1897.64,226.746 1880.24,260.634 " fill="none" id="GET /find_eligible_items-to-GET /find_eligible_items 204" style="stroke:#A80036;stroke-width:1.0;stroke-dasharray:7.0,7.0;"/><polygon fill="#A80036" points="1877.79,265.408,1885.461,259.231,1880.0751,260.9607,1878.3454,255.5748,1877.79,265.408" style="stroke:#A80036;stroke-width:1.0;"/><text fill="#000000" font-family="sans-serif" font-size="13" lengthAdjust="spacing" textLength="24" x="1922.5" y="192.0669">204</text><text fill="#000000" font-family="sans-serif" font-size="13" lengthAdjust="spacing" textLength="8" x="1871.4101" y="254.361">1</text><!--MD5=[fa65dfdd30463e6f74666694910627e4]
link GET /find_eligible_items to GET /find_eligible_items 400--><path codeLine="127" d="M1994.95,120.384 C2016.86,162.655 2050.08,226.746 2067.65,260.634 " fill="none" id="GET /find_eligible_items-to-GET /find_eligible_items 400" style="stroke:#A80036;stroke-width:1.0;stroke-dasharray:7.0,7.0;"/><polygon fill="#A80036" points="2070.12,265.408,2069.5217,255.5773,2067.8155,260.9707,2062.4221,259.2645,2070.12,265.408" style="stroke:#A80036;stroke-width:1.0;"/><text fill="#000000" font-family="sans-serif" font-size="13" lengthAdjust="spacing" textLength="24" x="2034.5" y="192.0669">400</text><text fill="#000000" font-family="sans-serif" font-size="13" lengthAdjust="spacing" textLength="8" x="2058.0224" y="254.361">1</text><!--MD5=[bace5a75f6195a2fad1fd791d7d1345e]
link GET /find_eligible_items to GET /find_eligible_items 500--><path codeLine="129" d="M2037.27,120.138 C2104.09,163.247 2206.4,229.249 2258.14,262.625 " fill="none" id="GET /find_eligible_items-to-GET /find_eligible_items 500" style="stroke:#A80036;stroke-width:1.0;stroke-dasharray:7.0,7.0;"/><polygon fill="#A80036" points="2262.38,265.362,2256.9909,257.1183,2258.1802,262.6488,2252.6498,263.838,2262.38,265.362" style="stroke:#A80036;stroke-width:1.0;"/><text fill="#000000" font-family="sans-serif" font-size="13" lengthAdjust="spacing" textLength="24" x="2152.5" y="192.0669">500</text><text fill="#000000" font-family="sans-serif" font-size="13" lengthAdjust="spacing" textLength="8" x="2244.5433" y="254.3009">1</text><!--MD5=[add56c239af140d0cda5ccb9360275b2]
link POST /send_offer_to_interested_buyers to SendOfferToInterestedBuyersCollectionResponse--><path codeLine="131" d="M715.287,107.65 C644.668,150.504 513.585,230.048 455.056,265.565 " fill="none" id="POST /send_offer_to_interested_buyers-to-SendOfferToInterestedBuyersCollectionResponse" style="stroke:#A80036;stroke-width:1.0;stroke-dasharray:7.0,7.0;"/><polygon fill="#A80036" points="450.632,268.249,460.4014,267.0002,454.9067,265.6553,456.2515,260.1607,450.632,268.249" style="stroke:#A80036;stroke-width:1.0;"/><text fill="#000000" font-family="sans-serif" font-size="13" lengthAdjust="spacing" textLength="24" x="595.5" y="192.0669">200</text><text fill="#000000" font-family="sans-serif" font-size="13" lengthAdjust="spacing" textLength="8" x="449.632" y="257.4704">1</text><!--MD5=[90ba300ef6f727e64d60934fe98d2efe]
link POST /send_offer_to_interested_buyers to POST /send_offer_to_interested_buyers 400--><path codeLine="133" d="M762.5,107.866 C762.5,148.687 762.5,222.488 762.5,260.098 " fill="none" id="POST /send_offer_to_interested_buyers-to-POST /send_offer_to_interested_buyers 400" style="stroke:#A80036;stroke-width:1.0;stroke-dasharray:7.0,7.0;"/><polygon fill="#A80036" points="762.5,265.377,766.5,256.377,762.5,260.377,758.5,256.377,762.5,265.377" style="stroke:#A80036;stroke-width:1.0;"/><text fill="#000000" font-family="sans-serif" font-size="13" lengthAdjust="spacing" textLength="24" x="763.5" y="192.0669">400</text><text fill="#000000" font-family="sans-serif" font-size="13" lengthAdjust="spacing" textLength="8" x="753.275" y="254.3205">1</text><!--MD5=[12c30cd761b514893455253f4ed208f9]
link POST /send_offer_to_interested_buyers to POST /send_offer_to_interested_buyers 409--><path codeLine="135" d="M805.51,107.65 C868.074,149.325 982.73,225.7 1038.03,262.536 " fill="none" id="POST /send_offer_to_interested_buyers-to-POST /send_offer_to_interested_buyers 409" style="stroke:#A80036;stroke-width:1.0;stroke-dasharray:7.0,7.0;"/><polygon fill="#A80036" points="1042.23,265.333,1036.9564,257.015,1038.0684,262.5615,1032.522,263.6735,1042.23,265.333" style="stroke:#A80036;stroke-width:1.0;"/><text fill="#000000" font-family="sans-serif" font-size="13" lengthAdjust="spacing" textLength="24" x="935.5" y="192.0669">409</text><text fill="#000000" font-family="sans-serif" font-size="13" lengthAdjust="spacing" textLength="8" x="1025.0444" y="254.5951">1</text><!--MD5=[57242bb0239a4e28a23f42998aab60f0]
link POST /send_offer_to_interested_buyers to POST /send_offer_to_interested_buyers 500--><path codeLine="137" d="M856.323,107.535 C949.591,136.241 1096.53,182.384 1222.5,226 C1256.93,237.921 1295.32,252.253 1325.16,263.626 " fill="none" id="POST /send_offer_to_interested_buyers-to-POST /send_offer_to_interested_buyers 500" style="stroke:#A80036;stroke-width:1.0;stroke-dasharray:7.0,7.0;"/><polygon fill="#A80036" points="1329.87,265.425,1322.873,258.4938,1325.1948,263.6522,1320.0365,265.974,1329.87,265.425" style="stroke:#A80036;stroke-width:1.0;"/><text fill="#000000" font-family="sans-serif" font-size="13" lengthAdjust="spacing" textLength="24" x="1123.5" y="192.0669">500</text><text fill="#000000" font-family="sans-serif" font-size="13" lengthAdjust="spacing" textLength="8" x="1306.3646" y="254.3832">1</text><!--MD5=[5c8ed80d6753b32f6a24e78cde91de90]
link POST /send_offer_to_interested_buyers to CreateOffersRequest--><path codeLine="139" d="M640.29,98.021 C503.56,121.861 294.255,166.875 241.5,226 C183.385,291.132 185.969,401.836 192.098,459.343 " fill="none" id="POST /send_offer_to_interested_buyers-to-CreateOffersRequest" style="stroke:#A80036;stroke-width:1.0;"/><polygon fill="#A80036" points="192.662,464.401,195.6398,455.0131,192.1078,459.4318,187.6891,455.8998,192.662,464.401" style="stroke:#A80036;stroke-width:1.0;"/><text fill="#000000" font-family="sans-serif" font-size="13" lengthAdjust="spacing" textLength="8" x="182.922" y="453.5265">1</text><!--MD5=[56bc37f5b5126940115f690884159644]
@startuml
hide <<Path>> circle
hide <<Response>> circle
hide <<Parameter>> circle
hide empty methods
hide empty fields
set namespaceSeparator none

class "Amount" {
  {field} currency : string {O}
  {field} value : string {O}
}

class "CreateOffersRequest" {
  {field} allowCounterOffer : boolean {O}
  {field} message : string {O}
}

class "EligibleItem" {
  {field} listingId : string {O}
}

class "Error" {
  {field} category : string {O}
  {field} domain : string {O}
  {field} errorId : integer {O}
  {field} inputRefIds : string[] {O}
  {field} longMessage : string {O}
  {field} message : string {O}
  {field} outputRefIds : string[] {O}
  {field} subdomain : string {O}
}

class "ErrorParameter" {
  {field} name : string {O}
  {field} value : string {O}
}

class "Offer" {
  {field} allowCounterOffer : boolean {O}
  {field} creationDate : string {O}
  {field} initiatedBy : string {O}
  {field} lastModifiedDate : string {O}
  {field} message : string {O}
  {field} offerId : string {O}
  {field} offerStatus : string {O}
  {field} offerType : string {O}
  {field} revision : string {O}
}

class "OfferedItem" {
  {field} discountPercentage : string {O}
  {field} listingId : string {O}
  {field} quantity : integer {O}
}

class "PagedEligibleItemCollection" {
  {field} href : string {O}
  {field} limit : integer {O}
  {field} next : string {O}
  {field} offset : integer {O}
  {field} prev : string {O}
  {field} total : integer {O}
}

class "SendOfferToInterestedBuyersCollectionResponse" {
}

class "TimeDuration" {
  {field} unit : string {O}
  {field} value : integer {O}
}

class "User" {
  {field} maskedUsername : string {O}
}

class "GET /find_eligible_items" <<Path>> {
  {field} limit : string {O}
  {field} offset : string {O}
  {field} X-EBAY-C-MARKETPLACE-ID : string
}

class "GET /find_eligible_items 204" <<Response>> {
}

class "GET /find_eligible_items 400" <<Response>> {
}

class "GET /find_eligible_items 500" <<Response>> {
}

class "POST /send_offer_to_interested_buyers" <<Path>> {
  {field} X-EBAY-C-MARKETPLACE-ID : string
}

class "POST /send_offer_to_interested_buyers 400" <<Response>> {
}

class "POST /send_offer_to_interested_buyers 409" <<Response>> {
}

class "POST /send_offer_to_interested_buyers 500" <<Response>> {
}

"CreateOffersRequest" - -> "0..1" "TimeDuration"  :  "offerDuration"

"CreateOffersRequest" - -> "*" "OfferedItem"  :  "offeredItems"

"Error" - -> "*" "ErrorParameter"  :  "parameters"

"Offer" - -> "0..1" "User"  :  "buyer"

"Offer" - -> "0..1" "TimeDuration"  :  "offerDuration"

"Offer" - -> "*" "OfferedItem"  :  "offeredItems"

"OfferedItem" - -> "0..1" "Amount"  :  "price"

"PagedEligibleItemCollection" - -> "*" "EligibleItem"  :  "eligibleItems"

"SendOfferToInterestedBuyersCollectionResponse" - -> "*" "Offer"  :  "offers"

"GET /find_eligible_items" ..> "1" "PagedEligibleItemCollection"  :  "200"

"GET /find_eligible_items" ..> "1" "GET /find_eligible_items 204"  :  "204"

"GET /find_eligible_items" ..> "1" "GET /find_eligible_items 400"  :  "400"

"GET /find_eligible_items" ..> "1" "GET /find_eligible_items 500"  :  "500"

"POST /send_offer_to_interested_buyers" ..> "1" "SendOfferToInterestedBuyersCollectionResponse"  :  "200"

"POST /send_offer_to_interested_buyers" ..> "1" "POST /send_offer_to_interested_buyers 400"  :  "400"

"POST /send_offer_to_interested_buyers" ..> "1" "POST /send_offer_to_interested_buyers 409"  :  "409"

"POST /send_offer_to_interested_buyers" ..> "1" "POST /send_offer_to_interested_buyers 500"  :  "500"

"POST /send_offer_to_interested_buyers" - -> "1" "CreateOffersRequest"
@enduml

PlantUML version 1.2021.16beta1(Unknown compile time)
(GPL source distribution)
Java Runtime: Java(TM) SE Runtime Environment
JVM: Java HotSpot(TM) 64-Bit Server VM
Default Encoding: UTF-8
Language: en
Country: US
--></g></svg>